; OM File Header - Saved 2023/07/06 16:13:08
; (7.02 :patc (om-make-point 25 36) (om-make-point 655 118) (om-make-point 705 501) "" 183 0 "2023/06/19 17:19:15" "2023/06/19 17:19:57")
; End File Header
; External resources 
; (list (list (quote :abstraction) "#P\"all-different.omp\""))
(in-package :om)(load-lib-for (quote nil))(setf *om-current-persistent* (om-load-patch1 "all-different" (quote ((let ((box (om-load-boxcall (quote patch-box) "all-different" (quote ("elements" "OM-Screamer-tutorial-patches" "02-screamer-solver" "tools" "all-different")) (quote ((om-load-inputfun (quote input-funbox) "" "x" nil) (om-load-inputfun (quote input-funbox) "" "xs" nil))) (om-make-point 451 208) nil nil nil nil 1))) (when (fboundp (quote set-active)) (set-active box nil)) box) (let ((box (om-load-boxout "output" 0 (om-make-point 261 432) (quote ((om-load-inputfun (quote input-funbox) "" "out" nil))) nil nil))) (when (fboundp (quote set-active)) (set-active box nil)) box) (let ((box (om-load-boxcall (quote lispfun) "CDR" (quote cdr) (quote ((om-load-inputfun (quote input-funbox) "X" "X" nil))) (om-make-point 501 130) nil nil nil nil 1))) (when (fboundp (quote set-active)) (set-active box nil)) box) (let ((box (om-load-boxcall (quote lispfun) "CAR" (quote car) (quote ((om-load-inputfun (quote input-funbox) "X" "X" nil))) (om-make-point 451 131) nil nil nil nil 1))) (when (fboundp (quote set-active)) (set-active box nil)) box) (let ((box (om-load-boxcall (quote lispfun) "ASSERT!-NOTV-MEMBERV" (quote screamer::assert!-notv-memberv) (quote ((om-load-inputfun (quote input-funbox) "X" "X" nil) (om-load-inputfun (quote input-funbox) "Y" "Y" nil))) (om-make-point 260 132) nil nil nil nil 1))) (when (fboundp (quote set-active)) (set-active box nil)) box) (let ((box (om-load-boxcall (quote lispfun) "ANDV" (quote screamer:andv) (quote ((om-load-inputfun (quote input-funbox) "add-input" "add-input" nil) (om-load-inputfun (quote input-funbox) "add-input" "add-input" nil))) (om-make-point 381 279) nil nil nil nil 1))) (when (fboundp (quote set-active)) (set-active box nil)) box) (let ((box (om-load-boxcall (quote bastype) "aux" (quote t) (quote nil) (om-make-point 275 303) (om-make-point 24 30) (quote t) "t" nil))) (when (fboundp (quote set-active)) (set-active box nil)) box) (let ((box (om-load-boxin "xs" 1 (om-make-point 454 6) "" "xs" nil nil))) (when (fboundp (quote set-active)) (set-active box nil)) box) (let ((box (om-load-boxin "x" 0 (om-make-point 294 3) "" "x" nil nil))) (when (fboundp (quote set-active)) (set-active box nil)) box) (let ((box (om-load-boxcall (quote lispfun) "NULL" (quote null) (quote ((om-load-inputfun (quote input-funbox) "X" "X" nil))) (om-make-point 161 120) nil nil nil nil 1))) (when (fboundp (quote set-active)) (set-active box nil)) box) (let ((box (om-load-boxcall (quote genfun) "OMIF" (quote omif) (quote ((om-load-inputfun (quote input-funbox) "IF" "TEST" nil) (om-load-inputfun (quote input-funbox) "THEN" "ACTION" nil) (om-load-inputfun (quote input-funbox) "ELSE" "ELSE" nil))) (om-make-point 61 340) (om-make-point 447 57) nil nil nil 1))) (when (fboundp (quote set-active)) (set-active box nil)) box))) (quote ((3 0 0 0 nil 0) (2 0 0 1 nil 0) (10 0 1 0 nil 0) (7 0 2 0 nil 0) (7 0 3 0 nil 0) (8 0 4 0 nil 0) (7 0 4 1 nil 0) (4 0 5 0 nil 0) (0 0 5 1 nil 0) (7 0 9 0 nil 0) (9 0 10 0 nil 0) (6 0 10 1 nil 0) (5 0 10 2 nil 0))) nil 7.02))
