; OM File Header - Saved 2023/05/30 13:46:35
; (7.02 :patc (om-make-point 36 12) (om-make-point 124 69) (om-make-point 798 335) "" 183 0 "2023/05/22 08:17:52" "2023/05/30 11:50:42")
; End File Header
(in-package :om)(load-lib-for (quote ("OM-Screamer")))(setf *om-current-persistent* (om-load-patch1 "tutorial-1" (quote ((let ((box (om-load-boxout "output" 0 (om-make-point 85 234) (quote ((om-load-inputfun (quote input-funbox) "" "out" nil))) nil nil))) (when (fboundp (quote set-active)) (set-active box nil)) box) (let ((box (om-load-boxcomment "comment" (om-make-point 473 105) (quote "And so on... Each time you choose Yes, Screamer performs a backtrack $and gives you another value. When you choose No, Screamer passes $the last value of the Non deterministic Listener to the classical OM Listener.$$Remark : the Non deterministic Listener allows to choose the solution, but $the function still gives a single value in the real OM listener.") "" (om-make-point 175 225) nil (om-make-color 0 0 0) (om-make-font "Verdana" 12 :family "Verdana" :style (quote (:plain)) :mode (quote nil))))) (when (fboundp (quote set-active)) (set-active box nil)) box) (let ((box (om-load-boxcall (quote bastype) "aux 2" (quote t) (quote nil) (om-make-point 136 82) (om-make-point 34 30) 10 "10" nil))) (when (fboundp (quote set-active)) (set-active box nil)) box) (let ((box (om-load-boxcall (quote bastype) "aux" (quote t) (quote nil) (om-make-point 54 80) (om-make-point 27 30) 0 "0" nil))) (when (fboundp (quote set-active)) (set-active box nil)) box) (let ((box (om-load-boxcall (quote genfun) "AN-INTEGER-BETWEEN" (quote an-integer-between) (quote ((om-load-inputfun (quote input-funbox) "low value" "LOW" 0) (om-load-inputfun (quote input-funbox) "high value" "HIGH" 10))) (om-make-point 50 129) nil nil nil nil 1))) (when (fboundp (quote set-active)) (set-active box nil)) box) (let ((box (om-load-boxcomment "comment" (om-make-point 408 120) (quote "The an-integer-between function allows to create a variable. $This function is non-deterministic, that means that you can $get many values (instead of one value for the deterministic $functions).$In <OM 7.2>, <Preferences>, <Backtrack>, choose <Listener> $as your Screamer Valuation, then evaluate the function to$see the non-deterministic results.") "" (om-make-point 212 67) nil (om-make-color 0 0 0) (om-make-font "Verdana" 12 :family "Verdana" :style (quote (:plain)) :mode (quote nil))))) (when (fboundp (quote set-active)) (set-active box nil)) box))) (quote ((4 0 0 0 nil 0) (3 0 4 0 nil 0) (2 0 4 1 nil 0))) nil 7.02))
