; OM File Header - Saved 2023/10/04 15:31:07
; (7.02 :patc (om-make-point 510 292) (om-make-point 187 43) (om-make-point 804 676) "" 183 0 "2023/08/25 11:51:18" "2023/10/04 10:52:09")
; End File Header
(in-package :om)(load-lib-for (quote ("OM-Screamer")))(setf *om-current-persistent* (om-load-patch1 "constraint-harmony-chords" (quote ((let ((box (om-load-boxcall (quote genfun) "CONSTRAINT-HARMONY 3" (quote constraint-harmony) (quote ((om-load-inputfun (quote input-funbox) "<lambda-patch>" "CONSTRAINT" nil) (om-load-inputfunmenu1 (quote input-funmenu) "constraint-mode" "CONSTRAINT-MODE" "list" (list (list "list" "list") (list "n-inputs" "n-inputs") (list "car-cdr" "car-cdr"))) (om-load-inputfunmenu1 (quote input-funmenu) "input-mode" "INPUT-MODE" "all-voices" (list (list "all-voices" "all-voices") (list "voices-list" "voices-list"))))) (om-make-point 668 133) nil nil nil nil 1))) (when (fboundp (quote set-active)) (set-active box nil)) box) (let ((box (om-load-boxcall (quote genfun) "CONSTRAINT-HARMONY 6" (quote constraint-harmony) (quote ((om-load-inputfun (quote input-funbox) "<lambda-patch>" "CONSTRAINT" nil) (om-load-inputfunmenu1 (quote input-funmenu) "constraint-mode" "CONSTRAINT-MODE" "list" (list (list "list" "list") (list "n-inputs" "n-inputs") (list "car-cdr" "car-cdr"))) (om-load-inputfunmenu1 (quote input-funmenu) "input-mode" "INPUT-MODE" "all-voices" (list (list "all-voices" "all-voices") (list "voices-list" "voices-list"))))) (om-make-point 536 121) nil nil nil nil 1))) (when (fboundp (quote set-active)) (set-active box nil)) box) (let ((box (om-load-boxcall (quote bastype) "aux 2" (quote t) (quote nil) (om-make-point 230 148) (om-make-point 27 30) 3 "3" nil))) (when (fboundp (quote set-active)) (set-active box nil)) box) (let ((box (om-load-boxcall (quote bastype) "aux" (quote t) (quote nil) (om-make-point 175 120) (om-make-point 67 30) "chords" "\"chords\"" nil))) (when (fboundp (quote set-active)) (set-active box nil)) box) (let ((box (om-load-boxcall (quote genfun) "SCREAMER-SCORE-DOMAIN" (quote screamer-score-domain) (quote ((om-load-inputfun (quote input-funbox) "midics-list" "DOMAIN" (list 6000 6200 6400 6500 6700 6900 7100 7200)) (om-load-inputfunmenu1 (quote input-funmenu) "domain-type" "TYPE" "chords" (list (list "notes" "notes") (list "chords" "chords"))) (om-load-inputfun (quote input-funbox) "number or list" "N-NOTES" 3))) (om-make-point 137 185) nil nil nil nil 1))) (when (fboundp (quote set-active)) (set-active box nil)) box) (let ((box (om-load-boxcall (quote abstraction) "first-last-chord" (om-load-patch-abs1 "first-last-chord" (quote ((let ((box (om-load-boxcall (quote genfun) "PCSET-EQUALV 2" (quote pcset-equalv) (quote ((om-load-inputfun (quote input-funbox) "domain-list" "DOMAIN-LIST" nil) (om-load-inputfun (quote input-funbox) "pcset list" "PCSET" (list 0 4 7)))) (om-make-point 65 216) nil nil nil nil 1))) (when (fboundp (quote set-active)) (set-active box nil)) box) (let ((box (om-load-boxcall (quote genfun) "PCSET-EQUALV" (quote pcset-equalv) (quote ((om-load-inputfun (quote input-funbox) "domain-list" "DOMAIN-LIST" nil) (om-load-inputfun (quote input-funbox) "pcset list" "PCSET" (list 0 4 7)))) (om-make-point 181 207) nil nil nil nil 1))) (when (fboundp (quote set-active)) (set-active box nil)) box) (let ((box (om-load-boxcall (quote lispfun) "ANDV" (quote screamer:andv) (quote ((om-load-inputfun (quote input-funbox) "add-input" "add-input" nil) (om-load-inputfun (quote input-funbox) "add-input" "add-input" nil))) (om-make-point 146 314) nil nil nil nil 1))) (when (fboundp (quote set-active)) (set-active box nil)) box) (let ((box (om-load-boxcall (quote lispfun) "FIRST" (quote first) (quote ((om-load-inputfun (quote input-funbox) "LIST" "LIST" nil))) (om-make-point 78 115) nil nil nil nil 1))) (when (fboundp (quote set-active)) (set-active box nil)) box) (let ((box (om-load-boxcall (quote bastype) "aux" (quote t) (quote nil) (om-make-point 256 155) (om-make-point 59 30) (list 0 4 7) "(0 4 7)" nil))) (when (fboundp (quote set-active)) (set-active box nil)) box) (let ((box (om-load-boxcall (quote lispfun) "ASSERT!" (quote screamer:assert!) (quote ((om-load-inputfun (quote input-funbox) "X" "X" nil))) (om-make-point 139 366) nil nil nil nil 1))) (when (fboundp (quote set-active)) (set-active box nil)) box) (let ((box (om-load-boxcall (quote genfun) "LAST-ELEM" (quote last-elem) (quote ((om-load-inputfun (quote input-funbox) "a list" "LIST" nil))) (om-make-point 179 117) nil nil nil nil 1))) (when (fboundp (quote set-active)) (set-active box nil)) box) (let ((box (om-load-boxout "output" 0 (om-make-point 138 428) (quote ((om-load-inputfun (quote input-funbox) "" "out" nil))) nil nil))) (when (fboundp (quote set-active)) (set-active box nil)) box) (let ((box (om-load-boxin "input" 0 (om-make-point 137 7) "" nil nil nil))) (when (fboundp (quote set-active)) (set-active box nil)) box))) (quote ((3 0 0 0 nil 0) (4 0 0 1 nil 0) (6 0 1 0 nil 0) (4 0 1 1 nil 0) (0 0 2 0 nil 0) (1 0 2 1 nil 0) (8 0 3 0 nil 0) (2 0 5 0 nil 0) (8 0 6 0 nil 0) (5 0 7 0 nil 0))) 7.02 nil "" (om-make-point 886 160) (om-make-point 396 548)) (quote ((om-load-inputfun (quote input-funbox) "" "input" nil))) (om-make-point 687 53) nil (list nil) "l" "first-last-chord"))) (when (fboundp (quote set-active)) (set-active box nil)) box) (let ((box (om-load-boxcall (quote abstraction) "harmonic-distance" (om-load-patch-abs1 "harmonic-distance" (quote ((let ((box (om-load-boxcall (quote lispfun) "<=V" (quote screamer:<=v) (quote ((om-load-inputfun (quote input-funbox) "X" "X" nil) (om-load-inputfun (quote input-funbox) "add-input" "add-input" nil))) (om-make-point 203 338) nil nil nil nil 1))) (when (fboundp (quote set-active)) (set-active box nil)) box) (let ((box (om-load-boxcall (quote lispfun) "ANDV" (quote screamer:andv) (quote ((om-load-inputfun (quote input-funbox) "add-input" "add-input" nil) (om-load-inputfun (quote input-funbox) "add-input" "add-input" nil))) (om-make-point 118 383) nil nil nil nil 1))) (when (fboundp (quote set-active)) (set-active box nil)) box) (let ((box (om-load-boxcall (quote bastype) "aux" (quote t) (quote nil) (om-make-point 241 292) (om-make-point 48 30) 1200 "1200" nil))) (when (fboundp (quote set-active)) (set-active box nil)) box) (let ((box (om-load-boxcall (quote lispfun) "-V" (quote screamer:-v) (quote ((om-load-inputfun (quote input-funbox) "X" "X" nil) (om-load-inputfun (quote input-funbox) "add-input" "add-input" nil))) (om-make-point 203 270) nil nil nil nil 1))) (when (fboundp (quote set-active)) (set-active box nil)) box) (let ((box (om-load-boxcall (quote lispfun) "FOURTH" (quote fourth) (quote ((om-load-inputfun (quote input-funbox) "LIST" "LIST" nil))) (om-make-point 203 159) nil nil nil nil 1))) (when (fboundp (quote set-active)) (set-active box nil)) box) (let ((box (om-load-boxcall (quote lispfun) ">V" (quote screamer:>v) (quote ((om-load-inputfun (quote input-funbox) "X" "X" nil) (om-load-inputfun (quote input-funbox) "add-input" "add-input" nil))) (om-make-point 119 255) nil nil nil nil 1))) (when (fboundp (quote set-active)) (set-active box nil)) box) (let ((box (om-load-boxcall (quote lispfun) "ASSERT!" (quote screamer:assert!) (quote ((om-load-inputfun (quote input-funbox) "X" "X" nil))) (om-make-point 111 438) nil nil nil nil 1))) (when (fboundp (quote set-active)) (set-active box nil)) box) (let ((box (om-load-boxcall (quote lispfun) "FIRST" (quote first) (quote ((om-load-inputfun (quote input-funbox) "LIST" "LIST" nil))) (om-make-point 115 158) nil nil nil nil 1))) (when (fboundp (quote set-active)) (set-active box nil)) box) (let ((box (om-load-boxout "output" 0 (om-make-point 111 496) (quote ((om-load-inputfun (quote input-funbox) "" "out" nil))) nil nil))) (when (fboundp (quote set-active)) (set-active box nil)) box) (let ((box (om-load-boxin "input" 0 (om-make-point 163 29) "" nil nil nil))) (when (fboundp (quote set-active)) (set-active box nil)) box))) (quote ((3 0 0 0 nil 0) (2 0 0 1 nil 0) (5 0 1 0 nil 0) (0 0 1 1 nil 0) (7 0 3 0 nil 0) (4 0 3 1 nil 0) (9 0 4 0 nil 0) (7 0 5 0 nil 0) (4 0 5 1 nil 0) (1 0 6 0 nil 0) (9 0 7 0 nil 0) (6 0 8 0 nil 0))) 7.02 nil "" (om-make-point 600 77) (om-make-point 342 612)) (quote ((om-load-inputfun (quote input-funbox) "" "input" nil))) (om-make-point 405 20) nil (list nil) "l" "harmonic-distance"))) (when (fboundp (quote set-active)) (set-active box nil)) box) (let ((box (om-load-boxcall (quote genfun) "CONSTRAINT-HARMONY 4" (quote constraint-harmony) (quote ((om-load-inputfun (quote input-funbox) "<lambda-patch>" "CONSTRAINT" nil) (om-load-inputfunmenu1 (quote input-funmenu) "constraint-mode" "CONSTRAINT-MODE" "n-inputs" (list (list "list" "list") (list "n-inputs" "n-inputs") (list "car-cdr" "car-cdr"))) (om-load-inputfunmenu1 (quote input-funmenu) "input-mode" "INPUT-MODE" "all-voices" (list (list "all-voices" "all-voices") (list "voices-list" "voices-list"))))) (om-make-point 401 111) nil nil nil nil 1))) (when (fboundp (quote set-active)) (set-active box nil)) box) (let ((box (om-load-boxcall (quote abstraction) "bass-line" (om-load-patch-abs1 "bass-line" (quote ((let ((box (om-load-boxcall (quote lispfun) "SECOND" (quote second) (quote ((om-load-inputfun (quote input-funbox) "LIST" "LIST" nil))) (om-make-point 64 79) nil nil "l" nil 1))) (when (fboundp (quote set-active)) (set-active box nil)) box) (let ((box (om-load-boxcall (quote lispfun) "MAPCAR 2" (quote mapcar) (quote ((om-load-inputfun (quote input-funbox) "FUNCTION" "FUNCTION" nil) (om-load-inputfun (quote input-funbox) "LIST" "LIST" nil))) (om-make-point 104 138) nil nil nil nil 1))) (when (fboundp (quote set-active)) (set-active box nil)) box) (let ((box (om-load-editor-box1 "CHORD" (quote chord) (quote ((om-load-inputfun (quote input-funbox) "object" "self" nil) (om-load-inputfun (quote input-funbox) "pitches (list of midicents)" "lmidic" (list 6000)) (om-load-inputfun (quote input-funbox) "velocities (list of values 0-127)" "lvel" (list 100)) (om-load-inputfun (quote input-funbox) "offsets (list of values in ms)" "loffset" (list 0)) (om-load-inputfun (quote input-funbox) "durations (list of values in ms)" "ldur" (list 1000)) (om-load-inputfun (quote input-funbox) "MIDI channels (list of values 0-16)" "lchan" (list 1)))) (om-make-point 178 144) (om-make-point 60 90) (let ((thechord (make-instance (quote chord) :lmidic (quote (4800 6000 6400 6000 6500 6000 6400 6200 5900 6000 5700 5300 5500 4800)) :ldur (quote (1000 1000 1000 1000 1000 1000 1000 1000 1000 1000 1000 1000 1000 1000)) :lvel (quote (100 100 100 100 100 100 100 100 100 100 100 100 100 100)) :loffset (quote (0 0 0 0 0 0 0 0 0 0 0 0 0 0)) :lchan (quote (1 1 1 1 1 1 1 1 1 1 1 1 1 1))))) (load-port-info thechord (quote (0 0 0 0 0 0 0 0 0 0 0 0 0 0))) (init-mus-color thechord (quote nil)) (set-extra-pairs thechord (quote nil)) (set-tonalite thechord nil) thechord) "x" nil (pairlis (quote (scale show-stems cursor-mode obj-mode score-mode winpos winsize mode grillestep notechancolor? zoom player inport outport deltapict cmnpref staff fontsize approx)) (list nil (quote t) (quote :normal) 0 0 (om-make-point 211 74) (om-make-point 782 285) 3 1000 nil 1 (quote :midi-player) nil nil (om-make-point 0 0) (let ((newobj (make-instance (quote edition-values)))) (setf (paper-size newobj) (om-make-point 600 800)) (setf (top-margin newobj) 2) (setf (left-margin newobj) 1) (setf (right-margin newobj) 1) (setf (bottom-margin newobj) 1) (setf (orientation newobj) nil) (setf (scale newobj) nil) (setf (system-space newobj) (quote (1))) (setf (system-color newobj) (quote nil)) (setf (line-space newobj) 1) (setf (title newobj) nil) (setf (show-title? newobj) nil) (setf (show-page? newobj) nil) (setf (sheet-id newobj) nil) (setf (page-mode newobj) nil) newobj) (quote gf) 24 2)) nil nil nil nil (quote nil)))) (when (fboundp (quote set-active)) (set-active box nil)) box) (let ((box (om-load-boxcall (quote abstraction) "bass-line" (om-load-patch-abs1 "bass-line" (quote ((let ((box (om-load-boxout "output" 0 (om-make-point 133 334) (quote ((om-load-inputfun (quote input-funbox) "" "out" nil))) nil nil))) (when (fboundp (quote set-active)) (set-active box nil)) box) (let ((box (om-load-boxcall (quote lispfun) "ASSERT!" (quote screamer:assert!) (quote ((om-load-inputfun (quote input-funbox) "X" "X" nil))) (om-make-point 134 254) nil nil nil nil 1))) (when (fboundp (quote set-active)) (set-active box nil)) box) (let ((box (om-load-boxcall (quote lispfun) "=V" (quote screamer:=v) (quote ((om-load-inputfun (quote input-funbox) "X" "X" nil) (om-load-inputfun (quote input-funbox) "add-input" "add-input" nil))) (om-make-point 141 150) nil nil nil nil 1))) (when (fboundp (quote set-active)) (set-active box nil)) box) (let ((box (om-load-boxin "input 2" 1 (om-make-point 208 36) "" nil nil nil))) (when (fboundp (quote set-active)) (set-active box nil)) box) (let ((box (om-load-boxin "input" 0 (om-make-point 77 30) "" nil nil nil))) (when (fboundp (quote set-active)) (set-active box nil)) box))) (quote ((1 0 0 0 nil 0) (2 0 1 0 nil 0) (4 0 2 0 nil 0) (3 0 2 1 nil 0))) 7.02 nil "" (om-make-point 624 172) (om-make-point 400 500)) (quote ((om-load-inputfun (quote input-funbox) "" "input" nil) (om-load-inputfun (quote input-funbox) "" "input 2" nil))) (om-make-point 32 137) nil (list nil) "l" "bass-line"))) (when (fboundp (quote set-active)) (set-active box nil)) box) (let ((box (om-load-boxcall (quote lispfun) "MAPCAR" (quote mapcar) (quote ((om-load-inputfun (quote input-funbox) "FUNCTION" "FUNCTION" nil) (om-load-inputfun (quote input-funbox) "LIST" "LIST" nil) (om-load-inputfun (quote input-funbox) "add-input" "add-input" nil))) (om-make-point 94 262) nil nil nil nil 1))) (when (fboundp (quote set-active)) (set-active box nil)) box) (let ((box (om-load-boxout "output" 0 (om-make-point 94 334) (quote ((om-load-inputfun (quote input-funbox) "" "out" nil))) nil nil))) (when (fboundp (quote set-active)) (set-active box nil)) box) (let ((box (om-load-boxin "input" 0 (om-make-point 120 10) "" nil nil nil))) (when (fboundp (quote set-active)) (set-active box nil)) box))) (quote ((0 0 1 0 nil 0) (6 0 1 1 nil 0) (3 0 4 0 nil 0) (1 0 4 1 nil 0) (2 1 4 2 nil 0) (4 0 5 0 nil 0))) 7.02 nil "" (om-make-point 283 73) (om-make-point 315 506)) (quote ((om-load-inputfun (quote input-funbox) "" "input" nil))) (om-make-point 566 36) nil (list nil) "l" "bass-line"))) (when (fboundp (quote set-active)) (set-active box nil)) box) (let ((box (om-load-boxcall (quote lispfun) "LIST" (quote list) (quote ((om-load-inputfun (quote input-funbox) "add-input" "add-input" nil) (om-load-inputfun (quote input-funbox) "add-input" "add-input" nil) (om-load-inputfun (quote input-funbox) "add-input" "add-input" nil) (om-load-inputfun (quote input-funbox) "add-input" "add-input" nil))) (om-make-point 319 218) nil nil nil nil 1))) (when (fboundp (quote set-active)) (set-active box nil)) box) (let ((box (om-load-editor-box1 "CHORD" (quote chord) (quote ((om-load-inputfun (quote input-funbox) "object" "self" nil) (om-load-inputfun (quote input-funbox) "pitches (list of midicents)" "lmidic" (list 6000)) (om-load-inputfun (quote input-funbox) "velocities (list of values 0-127)" "lvel" (list 100)) (om-load-inputfun (quote input-funbox) "offsets (list of values in ms)" "loffset" (list 0)) (om-load-inputfun (quote input-funbox) "durations (list of values in ms)" "ldur" (list 1000)) (om-load-inputfun (quote input-funbox) "MIDI channels (list of values 0-16)" "lchan" (list 1)))) (om-make-point 95 23) (om-make-point 63 119) (let ((thechord (make-instance (quote chord) :lmidic (quote (3600 3800 4000 4100 4300 4500 4700 4800 5000 5200 5300 5500 5700 5900 6000 6200 6400 6500 6700 6900 7100 7200)) :ldur (quote (1000 1000 1000 1000 1000 1000 1000 1000 1000 1000 1000 1000 1000 1000 1000 1000 1000 1000 1000 1000 1000 1000)) :lvel (quote (100 100 100 100 100 100 100 100 100 100 100 100 100 100 100 100 100 100 100 100 100 100)) :loffset (quote (0 0 0 0 0 0 0 0 0 0 0 0 0 0 0 0 0 0 0 0 0 0)) :lchan (quote (1 1 1 1 1 1 1 1 1 1 1 1 1 1 1 1 1 1 1 1 1 1))))) (load-port-info thechord (quote (0 0 0 0 0 0 0 0 0 0 0 0 0 0 0 0 0 0 0 0 0 0))) (init-mus-color thechord (quote nil)) (set-extra-pairs thechord (quote nil)) (set-tonalite thechord nil) thechord) "x" nil (pairlis (quote (approx fontsize staff cmnpref deltapict outport inport player zoom notechancolor? grillestep mode winsize winpos score-mode obj-mode cursor-mode show-stems scale)) (list 2 24 (quote gf) (let ((newobj (make-instance (quote edition-values)))) (setf (paper-size newobj) (om-make-point 600 800)) (setf (top-margin newobj) 2) (setf (left-margin newobj) 1) (setf (right-margin newobj) 1) (setf (bottom-margin newobj) 1) (setf (orientation newobj) nil) (setf (scale newobj) nil) (setf (system-space newobj) (quote (1))) (setf (system-color newobj) (quote nil)) (setf (line-space newobj) 1) (setf (title newobj) nil) (setf (show-title? newobj) nil) (setf (show-page? newobj) nil) (setf (sheet-id newobj) nil) (setf (page-mode newobj) nil) newobj) (om-make-point 0 0) nil nil (quote :midi-player) 1 nil 1000 3 (om-make-point 816 295) (om-make-point 400 23) 0 0 (quote :normal) (quote t) nil)) t nil nil nil (quote nil)))) (when (fboundp (quote set-active)) (set-active box nil)) box) (let ((box (om-load-boxcall (quote genfun) "CONSTRAINT-HARMONY 2" (quote constraint-harmony) (quote ((om-load-inputfun (quote input-funbox) "<lambda-patch>" "CONSTRAINT" nil) (om-load-inputfunmenu1 (quote input-funmenu) "constraint-mode" "CONSTRAINT-MODE" "n-inputs" (list (list "list" "list") (list "n-inputs" "n-inputs") (list "car-cdr" "car-cdr"))) (om-load-inputfunmenu1 (quote input-funmenu) "input-mode" "INPUT-MODE" "all-voices" (list (list "all-voices" "all-voices") (list "voices-list" "voices-list"))))) (om-make-point 271 98) nil nil nil nil 1))) (when (fboundp (quote set-active)) (set-active box nil)) box) (let ((box (om-load-boxcall (quote abstraction) "pc-sets" (om-load-patch-abs1 "pc-sets" (quote ((let ((box (om-load-boxcall (quote bastype) "aux 3" (quote t) (quote nil) (om-make-point 189 176) (om-make-point 65 30) "midics" "\"midics\"" nil))) (when (fboundp (quote set-active)) (set-active box nil)) box) (let ((box (om-load-boxcall (quote bastype) "aux 2" (quote t) (quote nil) (om-make-point 25 108) (om-make-point 234 30) (list (quote |3-11B|) (quote |3-11A|) (quote |2-4|) (quote |2-3|) (quote |4-27B|)) "(|3-11B| |3-11A| |2-4| |2-3| |4-27B|)" nil))) (when (fboundp (quote set-active)) (set-active box nil)) box) (let ((box (om-load-boxcall (quote lispfun) "ASSERT!" (quote screamer:assert!) (quote ((om-load-inputfun (quote input-funbox) "X" "X" nil))) (om-make-point 107 325) nil nil nil nil 1))) (when (fboundp (quote set-active)) (set-active box nil)) box) (let ((box (om-load-boxcall (quote genfun) "MEMBER-OF-SCV?" (quote om-screamer::member-of-scv?) (quote ((om-load-inputfun (quote input-funbox) "list of screamer variables" "VARS" (list nil)) (om-load-inputfun (quote input-funbox) "list of set-classes<fn>" "SC-LIST" (list (quote |3-11A|) (quote |3-11B|))) (om-load-inputfunmenu1 (quote input-funmenu) "pcs or midics" "MODE" "midics" (list (list "pcs" "pcs") (list "midics" "midics"))))) (om-make-point 83 231) nil nil nil nil 1))) (when (fboundp (quote set-active)) (set-active box nil)) box) (let ((box (om-load-boxout "output" 0 (om-make-point 106 394) (quote ((om-load-inputfun (quote input-funbox) "" "out" nil))) nil nil))) (when (fboundp (quote set-active)) (set-active box nil)) box) (let ((box (om-load-boxin "input" 0 (om-make-point 38 138) "" nil nil nil))) (when (fboundp (quote set-active)) (set-active box nil)) box))) (quote ((3 0 2 0 nil 0) (5 0 3 0 nil 0) (1 0 3 1 nil 0) (0 0 3 2 nil 0) (2 0 4 0 nil 0))) 7.02 nil "" (om-make-point 628 119) (om-make-point 377 530)) (quote ((om-load-inputfun (quote input-funbox) "" "input" nil))) (om-make-point 304 14) nil (list nil) "l" "pc-sets"))) (when (fboundp (quote set-active)) (set-active box nil)) box) (let ((box (om-load-editor-box1 "POLY 2" (quote poly) (quote ((om-load-inputfun (quote input-funbox) "object" "self" nil) (om-load-inputfun (quote input-funbox) "list of VOICE objects" "voices" (list (let ((newobj (when (find-class (quote voice) nil) (make-instance (quote voice) :tree (quote (1 (((4 4) (1 1 1 1))))) :chords (load-obj-list-from-save (quote ((let ((thechord (make-instance (quote chord) :lmidic (quote (6000)) :ldur (quote (1000)) :lvel (quote (100)) :loffset (quote (0)) :lchan (quote (1))))) (load-port-info thechord (quote (0))) (init-mus-color thechord (quote nil)) (set-extra-pairs thechord (quote nil)) (set-tonalite thechord nil) thechord) (let ((thechord (make-instance (quote chord) :lmidic (quote (6000)) :ldur (quote (1000)) :lvel (quote (100)) :loffset (quote (0)) :lchan (quote (1))))) (load-port-info thechord (quote (0))) (init-mus-color thechord (quote nil)) (set-extra-pairs thechord (quote nil)) (set-tonalite thechord nil) thechord) (let ((thechord (make-instance (quote chord) :lmidic (quote (6000)) :ldur (quote (1000)) :lvel (quote (100)) :loffset (quote (0)) :lchan (quote (1))))) (load-port-info thechord (quote (0))) (init-mus-color thechord (quote nil)) (set-extra-pairs thechord (quote nil)) (set-tonalite thechord nil) thechord) (let ((thechord (make-instance (quote chord) :lmidic (quote (6000)) :ldur (quote (1000)) :lvel (quote (100)) :loffset (quote (0)) :lchan (quote (1))))) (load-port-info thechord (quote (0))) (init-mus-color thechord (quote nil)) (set-extra-pairs thechord (quote nil)) (set-tonalite thechord nil) thechord)))) :tempo (quote ((1/4 60) nil)) :legato 100 :ties (quote (nil nil nil nil)))))) (load-port-info newobj (quote nil)) (init-mus-color newobj (quote nil)) (set-extra-pairs newobj (quote nil)) (set-patch-pairs newobj (quote nil)) (set-name newobj nil) (set-tonalite newobj nil) newobj))))) (om-make-point 51 415) (om-make-point 448 221) (if (find-class (quote poly) nil) (let ((newobj (make-instance (quote poly) :voices (list (let ((newobj (when (find-class (quote voice) nil) (make-instance (quote voice) :tree (quote (4 (((4 4) (1 1 1 1)) ((4 4) (1 1 2)) ((4 4) (1 1 1 1)) ((4 4) (1 1 2))))) :chords (load-obj-list-from-save (quote ((let ((thechord (make-instance (quote chord) :lmidic (quote (7200)) :ldur (quote (1000)) :lvel (quote (80)) :loffset (quote (0)) :lchan (quote (1))))) (load-port-info thechord (quote (nil))) (init-mus-color thechord (quote nil)) (set-extra-pairs thechord (quote nil)) (set-tonalite thechord nil) thechord) (let ((thechord (make-instance (quote chord) :lmidic (quote (7200)) :ldur (quote (1000)) :lvel (quote (80)) :loffset (quote (0)) :lchan (quote (1))))) (load-port-info thechord (quote (nil))) (init-mus-color thechord (quote nil)) (set-extra-pairs thechord (quote nil)) (set-tonalite thechord nil) thechord) (let ((thechord (make-instance (quote chord) :lmidic (quote (7900)) :ldur (quote (1000)) :lvel (quote (80)) :loffset (quote (0)) :lchan (quote (1))))) (load-port-info thechord (quote (nil))) (init-mus-color thechord (quote nil)) (set-extra-pairs thechord (quote nil)) (set-tonalite thechord nil) thechord) (let ((thechord (make-instance (quote chord) :lmidic (quote (7900)) :ldur (quote (1000)) :lvel (quote (80)) :loffset (quote (0)) :lchan (quote (1))))) (load-port-info thechord (quote (nil))) (init-mus-color thechord (quote nil)) (set-extra-pairs thechord (quote nil)) (set-tonalite thechord nil) thechord) (let ((thechord (make-instance (quote chord) :lmidic (quote (8100)) :ldur (quote (1000)) :lvel (quote (80)) :loffset (quote (0)) :lchan (quote (1))))) (load-port-info thechord (quote (nil))) (init-mus-color thechord (quote nil)) (set-extra-pairs thechord (quote nil)) (set-tonalite thechord nil) thechord) (let ((thechord (make-instance (quote chord) :lmidic (quote (8100)) :ldur (quote (1000)) :lvel (quote (80)) :loffset (quote (0)) :lchan (quote (1))))) (load-port-info thechord (quote (nil))) (init-mus-color thechord (quote nil)) (set-extra-pairs thechord (quote nil)) (set-tonalite thechord nil) thechord) (let ((thechord (make-instance (quote chord) :lmidic (quote (7900)) :ldur (quote (2000)) :lvel (quote (80)) :loffset (quote (0)) :lchan (quote (1))))) (load-port-info thechord (quote (nil))) (init-mus-color thechord (quote nil)) (set-extra-pairs thechord (quote nil)) (set-tonalite thechord nil) thechord) (let ((thechord (make-instance (quote chord) :lmidic (quote (7700)) :ldur (quote (1000)) :lvel (quote (80)) :loffset (quote (0)) :lchan (quote (1))))) (load-port-info thechord (quote (nil))) (init-mus-color thechord (quote nil)) (set-extra-pairs thechord (quote nil)) (set-tonalite thechord nil) thechord) (let ((thechord (make-instance (quote chord) :lmidic (quote (7700)) :ldur (quote (1000)) :lvel (quote (80)) :loffset (quote (0)) :lchan (quote (1))))) (load-port-info thechord (quote (nil))) (init-mus-color thechord (quote nil)) (set-extra-pairs thechord (quote nil)) (set-tonalite thechord nil) thechord) (let ((thechord (make-instance (quote chord) :lmidic (quote (7600)) :ldur (quote (1000)) :lvel (quote (80)) :loffset (quote (0)) :lchan (quote (1))))) (load-port-info thechord (quote (nil))) (init-mus-color thechord (quote nil)) (set-extra-pairs thechord (quote nil)) (set-tonalite thechord nil) thechord) (let ((thechord (make-instance (quote chord) :lmidic (quote (7600)) :ldur (quote (1000)) :lvel (quote (80)) :loffset (quote (0)) :lchan (quote (1))))) (load-port-info thechord (quote (nil))) (init-mus-color thechord (quote nil)) (set-extra-pairs thechord (quote nil)) (set-tonalite thechord nil) thechord) (let ((thechord (make-instance (quote chord) :lmidic (quote (7400)) :ldur (quote (1000)) :lvel (quote (80)) :loffset (quote (0)) :lchan (quote (1))))) (load-port-info thechord (quote (nil))) (init-mus-color thechord (quote nil)) (set-extra-pairs thechord (quote nil)) (set-tonalite thechord nil) thechord) (let ((thechord (make-instance (quote chord) :lmidic (quote (7400)) :ldur (quote (1000)) :lvel (quote (80)) :loffset (quote (0)) :lchan (quote (1))))) (load-port-info thechord (quote (nil))) (init-mus-color thechord (quote nil)) (set-extra-pairs thechord (quote nil)) (set-tonalite thechord nil) thechord) (let ((thechord (make-instance (quote chord) :lmidic (quote (7200)) :ldur (quote (2000)) :lvel (quote (80)) :loffset (quote (0)) :lchan (quote (1))))) (load-port-info thechord (quote (nil))) (init-mus-color thechord (quote nil)) (set-extra-pairs thechord (quote nil)) (set-tonalite thechord nil) thechord)))) :tempo (quote ((1/4 60) nil)) :legato 100 :ties (quote (nil nil nil nil nil nil nil nil nil nil nil nil nil nil)))))) (load-port-info newobj (quote nil)) (init-mus-color newobj (quote nil)) (set-extra-pairs newobj (quote nil)) (set-patch-pairs newobj (quote nil)) (set-name newobj nil) (set-tonalite newobj nil) newobj) (let ((newobj (when (find-class (quote voice) nil) (make-instance (quote voice) :tree (quote (4 (((4 4) (1 1 1 1)) ((4 4) (1 1 2)) ((4 4) (1 1 1 1)) ((4 4) (1 1 2))))) :chords (load-obj-list-from-save (quote ((let ((thechord (make-instance (quote chord) :lmidic (quote (4800 5200 6000)) :ldur (quote (1000 1000 1000)) :lvel (quote (100 100 100)) :loffset (quote (0 0 0)) :lchan (quote (1 1 1))))) (load-port-info thechord (quote (0 0 0))) (init-mus-color thechord (quote nil)) (set-extra-pairs thechord (quote nil)) (set-tonalite thechord nil) thechord) (let ((thechord (make-instance (quote chord) :lmidic (quote (6000 6400 6700)) :ldur (quote (1000 1000 1000)) :lvel (quote (100 100 100)) :loffset (quote (0 0 0)) :lchan (quote (1 1 1))))) (load-port-info thechord (quote (0 0 0))) (init-mus-color thechord (quote nil)) (set-extra-pairs thechord (quote nil)) (set-tonalite thechord nil) thechord) (let ((thechord (make-instance (quote chord) :lmidic (quote (6400 6700 7200)) :ldur (quote (1000 1000 1000)) :lvel (quote (100 100 100)) :loffset (quote (0 0 0)) :lchan (quote (1 1 1))))) (load-port-info thechord (quote (0 0 0))) (init-mus-color thechord (quote nil)) (set-extra-pairs thechord (quote nil)) (set-tonalite thechord nil) thechord) (let ((thechord (make-instance (quote chord) :lmidic (quote (6000 6400 7200)) :ldur (quote (1000 1000 1000)) :lvel (quote (100 100 100)) :loffset (quote (0 0 0)) :lchan (quote (1 1 1))))) (load-port-info thechord (quote (0 0 0))) (init-mus-color thechord (quote nil)) (set-extra-pairs thechord (quote nil)) (set-tonalite thechord nil) thechord) (let ((thechord (make-instance (quote chord) :lmidic (quote (6500 6900 7200)) :ldur (quote (1000 1000 1000)) :lvel (quote (100 100 100)) :loffset (quote (0 0 0)) :lchan (quote (1 1 1))))) (load-port-info thechord (quote (0 0 0))) (init-mus-color thechord (quote nil)) (set-extra-pairs thechord (quote nil)) (set-tonalite thechord nil) thechord) (let ((thechord (make-instance (quote chord) :lmidic (quote (6000 6500 6900)) :ldur (quote (1000 1000 1000)) :lvel (quote (100 100 100)) :loffset (quote (0 0 0)) :lchan (quote (1 1 1))))) (load-port-info thechord (quote (0 0 0))) (init-mus-color thechord (quote nil)) (set-extra-pairs thechord (quote nil)) (set-tonalite thechord nil) thechord) (let ((thechord (make-instance (quote chord) :lmidic (quote (6400 6700 7100)) :ldur (quote (2000 2000 2000)) :lvel (quote (100 100 100)) :loffset (quote (0 0 0)) :lchan (quote (1 1 1))))) (load-port-info thechord (quote (0 0 0))) (init-mus-color thechord (quote nil)) (set-extra-pairs thechord (quote nil)) (set-tonalite thechord nil) thechord) (let ((thechord (make-instance (quote chord) :lmidic (quote (6200 6700 7100)) :ldur (quote (1000 1000 1000)) :lvel (quote (100 100 100)) :loffset (quote (0 0 0)) :lchan (quote (1 1 1))))) (load-port-info thechord (quote (0 0 0))) (init-mus-color thechord (quote nil)) (set-extra-pairs thechord (quote nil)) (set-tonalite thechord nil) thechord) (let ((thechord (make-instance (quote chord) :lmidic (quote (5900 6200 6700)) :ldur (quote (1000 1000 1000)) :lvel (quote (100 100 100)) :loffset (quote (0 0 0)) :lchan (quote (1 1 1))))) (load-port-info thechord (quote (0 0 0))) (init-mus-color thechord (quote nil)) (set-extra-pairs thechord (quote nil)) (set-tonalite thechord nil) thechord) (let ((thechord (make-instance (quote chord) :lmidic (quote (6000 6900 7200)) :ldur (quote (1000 1000 1000)) :lvel (quote (100 100 100)) :loffset (quote (0 0 0)) :lchan (quote (1 1 1))))) (load-port-info thechord (quote (0 0 0))) (init-mus-color thechord (quote nil)) (set-extra-pairs thechord (quote nil)) (set-tonalite thechord nil) thechord) (let ((thechord (make-instance (quote chord) :lmidic (quote (5700 6900 7200)) :ldur (quote (1000 1000 1000)) :lvel (quote (100 100 100)) :loffset (quote (0 0 0)) :lchan (quote (1 1 1))))) (load-port-info thechord (quote (0 0 0))) (init-mus-color thechord (quote nil)) (set-extra-pairs thechord (quote nil)) (set-tonalite thechord nil) thechord) (let ((thechord (make-instance (quote chord) :lmidic (quote (5300 5700 6200)) :ldur (quote (1000 1000 1000)) :lvel (quote (100 100 100)) :loffset (quote (0 0 0)) :lchan (quote (1 1 1))))) (load-port-info thechord (quote (0 0 0))) (init-mus-color thechord (quote nil)) (set-extra-pairs thechord (quote nil)) (set-tonalite thechord nil) thechord) (let ((thechord (make-instance (quote chord) :lmidic (quote (5500 5900 6200)) :ldur (quote (1000 1000 1000)) :lvel (quote (100 100 100)) :loffset (quote (0 0 0)) :lchan (quote (1 1 1))))) (load-port-info thechord (quote (0 0 0))) (init-mus-color thechord (quote nil)) (set-extra-pairs thechord (quote nil)) (set-tonalite thechord nil) thechord) (let ((thechord (make-instance (quote chord) :lmidic (quote (4800 5200 6000)) :ldur (quote (2000 2000 2000)) :lvel (quote (100 100 100)) :loffset (quote (0 0 0)) :lchan (quote (1 1 1))))) (load-port-info thechord (quote (0 0 0))) (init-mus-color thechord (quote nil)) (set-extra-pairs thechord (quote nil)) (set-tonalite thechord nil) thechord)))) :tempo (quote ((1/4 60) nil)) :legato 100 :ties (quote (nil nil nil nil nil nil nil nil nil nil nil nil nil nil)))))) (load-port-info newobj (quote nil)) (init-mus-color newobj (quote nil)) (set-extra-pairs newobj (quote nil)) (set-patch-pairs newobj (quote nil)) (set-name newobj nil) (set-tonalite newobj nil) newobj)) :from-file t))) (load-port-info newobj (quote (nil nil))) (init-mus-color newobj (quote nil)) (set-extra-pairs newobj (quote nil)) (set-patch-pairs newobj (quote nil)) (set-name newobj nil) (set-tonalite newobj nil) newobj)) nil nil (pairlis (quote (scale show-stems cursor-mode obj-mode score-mode winpos winsize mode grillestep notechancolor? zoom player inport outport deltapict cmnpref staff fontsize approx)) (list nil (quote t) (quote :normal) 1 0 (om-make-point 405 97) (om-make-point 787 586) 0 1000 nil 1 (quote :midi-player) nil nil (om-make-point 0 0) (let ((newobj (make-instance (quote edition-values)))) (setf (paper-size newobj) (om-make-point 600 800)) (setf (top-margin newobj) 2) (setf (left-margin newobj) 1) (setf (right-margin newobj) 1) (setf (bottom-margin newobj) 1) (setf (orientation newobj) nil) (setf (scale newobj) nil) (setf (system-space newobj) (quote (2 2))) (setf (system-color newobj) (quote nil)) (setf (line-space newobj) 1) (setf (title newobj) nil) (setf (show-title? newobj) nil) (setf (show-page? newobj) nil) (setf (sheet-id newobj) nil) (setf (page-mode newobj) nil) newobj) (list (quote gf) (quote gf) (quote gf) (quote gf)) 24 2)) t nil nil nil (quote nil)))) (when (fboundp (quote set-active)) (set-active box nil)) box) (let ((box (om-load-boxcall (quote genfun) "FORCE-FUNCTION" (quote force-function) (quote ((om-load-inputfunmenu1 (quote input-funmenu) "ordering-force-functions" "FORCE-FUNCTION" "reorder" (list (list "static-ordering linear-force" "static-ordering linear-force") (list "static-ordering divide-and-conquer-force" "static-ordering divide-and-conquer-force") (list "reorder" "reorder"))) (om-load-inputfunmenu1 (quote input-funmenu) "domain-size or range-size" "COST-FUNCTION" "domain-size" (list (list "domain-size" "domain-size") (list "range-size" "range-size"))) (om-load-inputfunmenu1 (quote input-funmenu) "terminate-function" "TERMINATE?" "(declare (ignore x))" (list (list "(declare (ignore x))" "(declare (ignore x))") (list "(< x 1e-6)" "(< x 1e-6)"))) (om-load-inputfunmenu1 (quote input-funmenu) "> or <" "ORDER" "<" (list (list ">" ">") (list "<" "<"))) (om-load-inputfunmenu1 (quote input-funmenu) "linear-force or divide-and-conquer-force" "REORDER-FORCE-FUNCTION" "linear-force" (list (list "linear-force" "linear-force") (list "divide-and-conquer-force" "divide-and-conquer-force"))))) (om-make-point 393 223) nil nil nil nil 1))) (when (fboundp (quote set-active)) (set-active box nil)) box) (let ((box (om-load-boxcall (quote genfun) "SCREAMER-SCORE" (quote screamer-score) (quote ((om-load-inputfun (quote input-funbox) "voice" "POLY-OBJECT" nil) (om-load-inputfun (quote input-funbox) "list" "DOMAINS" (list 6000 6200 6400)) (om-load-inputfun (quote input-funbox) "list of screamer-score-constraints" "SCORE-CONSTRAINTS" nil) (om-load-inputfun (quote input-funbox) "ordering-force-functions" "FORCE-FUNCTION" "static-ordering linear-force") (om-load-inputfunmenu1 (quote input-funmenu) "t or nil" "RANDOM?" (quote t) (list (list "t" (quote t)) (list "nil" nil))) (om-load-inputfunmenu1 (quote input-funmenu) "integer" "MCS-APPROX" 2 (list (list "2" 2) (list "4" 4) (list "8" 8) (list "16" 16))))) (om-make-point 219 325) nil nil nil nil 1))) (when (fboundp (quote set-active)) (set-active box nil)) box) (let ((box (om-load-editor-box1 "POLY" (quote poly) (quote ((om-load-inputfun (quote input-funbox) "object" "self" nil) (om-load-inputfun (quote input-funbox) "list of VOICE objects" "voices" (list (let ((newobj (when (find-class (quote voice) nil) (make-instance (quote voice) :tree (quote (1 (((4 4) (1 1 1 1))))) :chords (load-obj-list-from-save (quote ((let ((thechord (make-instance (quote chord) :lmidic (quote (6000)) :ldur (quote (1000)) :lvel (quote (100)) :loffset (quote (0)) :lchan (quote (1))))) (load-port-info thechord (quote (0))) (init-mus-color thechord (quote nil)) (set-extra-pairs thechord (quote nil)) (set-tonalite thechord nil) thechord) (let ((thechord (make-instance (quote chord) :lmidic (quote (6000)) :ldur (quote (1000)) :lvel (quote (100)) :loffset (quote (0)) :lchan (quote (1))))) (load-port-info thechord (quote (0))) (init-mus-color thechord (quote nil)) (set-extra-pairs thechord (quote nil)) (set-tonalite thechord nil) thechord) (let ((thechord (make-instance (quote chord) :lmidic (quote (6000)) :ldur (quote (1000)) :lvel (quote (100)) :loffset (quote (0)) :lchan (quote (1))))) (load-port-info thechord (quote (0))) (init-mus-color thechord (quote nil)) (set-extra-pairs thechord (quote nil)) (set-tonalite thechord nil) thechord) (let ((thechord (make-instance (quote chord) :lmidic (quote (6000)) :ldur (quote (1000)) :lvel (quote (100)) :loffset (quote (0)) :lchan (quote (1))))) (load-port-info thechord (quote (0))) (init-mus-color thechord (quote nil)) (set-extra-pairs thechord (quote nil)) (set-tonalite thechord nil) thechord)))) :tempo (quote ((1/4 60) nil)) :legato 100 :ties (quote (nil nil nil nil)))))) (load-port-info newobj (quote nil)) (init-mus-color newobj (quote nil)) (set-extra-pairs newobj (quote nil)) (set-patch-pairs newobj (quote nil)) (set-name newobj nil) (set-tonalite newobj nil) newobj))))) (om-make-point 27 220) (om-make-point 100 84) (if (find-class (quote poly) nil) (let ((newobj (make-instance (quote poly) :voices (list (let ((newobj (when (find-class (quote voice) nil) (make-instance (quote voice) :tree (quote (4 (((4 4) (1 1 1 1)) ((4 4) (1 1 2)) ((4 4) (1 1 1 1)) ((4 4) (1 1 2))))) :chords (load-obj-list-from-save (quote ((let ((thechord (make-instance (quote chord) :lmidic (quote (7200)) :ldur (quote (1000)) :lvel (quote (80)) :loffset (quote (0)) :lchan (quote (1))))) (load-port-info thechord (quote (nil))) (init-mus-color thechord (quote nil)) (set-extra-pairs thechord (quote nil)) (set-tonalite thechord nil) thechord) (let ((thechord (make-instance (quote chord) :lmidic (quote (7200)) :ldur (quote (1000)) :lvel (quote (80)) :loffset (quote (0)) :lchan (quote (1))))) (load-port-info thechord (quote (nil))) (init-mus-color thechord (quote nil)) (set-extra-pairs thechord (quote nil)) (set-tonalite thechord nil) thechord) (let ((thechord (make-instance (quote chord) :lmidic (quote (7900)) :ldur (quote (1000)) :lvel (quote (80)) :loffset (quote (0)) :lchan (quote (1))))) (load-port-info thechord (quote (nil))) (init-mus-color thechord (quote nil)) (set-extra-pairs thechord (quote nil)) (set-tonalite thechord nil) thechord) (let ((thechord (make-instance (quote chord) :lmidic (quote (7900)) :ldur (quote (1000)) :lvel (quote (80)) :loffset (quote (0)) :lchan (quote (1))))) (load-port-info thechord (quote (nil))) (init-mus-color thechord (quote nil)) (set-extra-pairs thechord (quote nil)) (set-tonalite thechord nil) thechord) (let ((thechord (make-instance (quote chord) :lmidic (quote (8100)) :ldur (quote (1000)) :lvel (quote (80)) :loffset (quote (0)) :lchan (quote (1))))) (load-port-info thechord (quote (nil))) (init-mus-color thechord (quote nil)) (set-extra-pairs thechord (quote nil)) (set-tonalite thechord nil) thechord) (let ((thechord (make-instance (quote chord) :lmidic (quote (8100)) :ldur (quote (1000)) :lvel (quote (80)) :loffset (quote (0)) :lchan (quote (1))))) (load-port-info thechord (quote (nil))) (init-mus-color thechord (quote nil)) (set-extra-pairs thechord (quote nil)) (set-tonalite thechord nil) thechord) (let ((thechord (make-instance (quote chord) :lmidic (quote (7900)) :ldur (quote (2000)) :lvel (quote (80)) :loffset (quote (0)) :lchan (quote (1))))) (load-port-info thechord (quote (nil))) (init-mus-color thechord (quote nil)) (set-extra-pairs thechord (quote nil)) (set-tonalite thechord nil) thechord) (let ((thechord (make-instance (quote chord) :lmidic (quote (7700)) :ldur (quote (1000)) :lvel (quote (80)) :loffset (quote (0)) :lchan (quote (1))))) (load-port-info thechord (quote (nil))) (init-mus-color thechord (quote nil)) (set-extra-pairs thechord (quote nil)) (set-tonalite thechord nil) thechord) (let ((thechord (make-instance (quote chord) :lmidic (quote (7700)) :ldur (quote (1000)) :lvel (quote (80)) :loffset (quote (0)) :lchan (quote (1))))) (load-port-info thechord (quote (nil))) (init-mus-color thechord (quote nil)) (set-extra-pairs thechord (quote nil)) (set-tonalite thechord nil) thechord) (let ((thechord (make-instance (quote chord) :lmidic (quote (7600)) :ldur (quote (1000)) :lvel (quote (80)) :loffset (quote (0)) :lchan (quote (1))))) (load-port-info thechord (quote (nil))) (init-mus-color thechord (quote nil)) (set-extra-pairs thechord (quote nil)) (set-tonalite thechord nil) thechord) (let ((thechord (make-instance (quote chord) :lmidic (quote (7600)) :ldur (quote (1000)) :lvel (quote (80)) :loffset (quote (0)) :lchan (quote (1))))) (load-port-info thechord (quote (nil))) (init-mus-color thechord (quote nil)) (set-extra-pairs thechord (quote nil)) (set-tonalite thechord nil) thechord) (let ((thechord (make-instance (quote chord) :lmidic (quote (7400)) :ldur (quote (1000)) :lvel (quote (80)) :loffset (quote (0)) :lchan (quote (1))))) (load-port-info thechord (quote (nil))) (init-mus-color thechord (quote nil)) (set-extra-pairs thechord (quote nil)) (set-tonalite thechord nil) thechord) (let ((thechord (make-instance (quote chord) :lmidic (quote (7400)) :ldur (quote (1000)) :lvel (quote (80)) :loffset (quote (0)) :lchan (quote (1))))) (load-port-info thechord (quote (nil))) (init-mus-color thechord (quote nil)) (set-extra-pairs thechord (quote nil)) (set-tonalite thechord nil) thechord) (let ((thechord (make-instance (quote chord) :lmidic (quote (7200)) :ldur (quote (2000)) :lvel (quote (80)) :loffset (quote (0)) :lchan (quote (1))))) (load-port-info thechord (quote (nil))) (init-mus-color thechord (quote nil)) (set-extra-pairs thechord (quote nil)) (set-tonalite thechord nil) thechord)))) :tempo (quote ((1/4 60) nil)) :legato 100 :ties (quote (nil nil nil nil nil nil nil nil nil nil nil nil nil nil)))))) (load-port-info newobj (quote nil)) (init-mus-color newobj (quote nil)) (set-extra-pairs newobj (quote nil)) (set-patch-pairs newobj (quote nil)) (set-name newobj nil) (set-tonalite newobj nil) newobj) (let ((newobj (when (find-class (quote voice) nil) (make-instance (quote voice) :tree (quote (4 (((4 4) (1 1 1 1)) ((4 4) (1 1 2)) ((4 4) (1 1 1 1)) ((4 4) (1 1 2))))) :chords (load-obj-list-from-save (quote ((let ((thechord (make-instance (quote chord) :lmidic (quote (6000)) :ldur (quote (1000)) :lvel (quote (100)) :loffset (quote (0)) :lchan (quote (1))))) (load-port-info thechord (quote (0))) (init-mus-color thechord (quote nil)) (set-extra-pairs thechord (quote nil)) (set-tonalite thechord nil) thechord) (let ((thechord (make-instance (quote chord) :lmidic (quote (6000)) :ldur (quote (1000)) :lvel (quote (100)) :loffset (quote (0)) :lchan (quote (1))))) (load-port-info thechord (quote (0))) (init-mus-color thechord (quote nil)) (set-extra-pairs thechord (quote nil)) (set-tonalite thechord nil) thechord) (let ((thechord (make-instance (quote chord) :lmidic (quote (6000)) :ldur (quote (1000)) :lvel (quote (100)) :loffset (quote (0)) :lchan (quote (1))))) (load-port-info thechord (quote (0))) (init-mus-color thechord (quote nil)) (set-extra-pairs thechord (quote nil)) (set-tonalite thechord nil) thechord) (let ((thechord (make-instance (quote chord) :lmidic (quote (6000)) :ldur (quote (1000)) :lvel (quote (100)) :loffset (quote (0)) :lchan (quote (1))))) (load-port-info thechord (quote (0))) (init-mus-color thechord (quote nil)) (set-extra-pairs thechord (quote nil)) (set-tonalite thechord nil) thechord) (let ((thechord (make-instance (quote chord) :lmidic (quote (6000)) :ldur (quote (1000)) :lvel (quote (100)) :loffset (quote (0)) :lchan (quote (1))))) (load-port-info thechord (quote (0))) (init-mus-color thechord (quote nil)) (set-extra-pairs thechord (quote nil)) (set-tonalite thechord nil) thechord) (let ((thechord (make-instance (quote chord) :lmidic (quote (6000)) :ldur (quote (1000)) :lvel (quote (100)) :loffset (quote (0)) :lchan (quote (1))))) (load-port-info thechord (quote (0))) (init-mus-color thechord (quote nil)) (set-extra-pairs thechord (quote nil)) (set-tonalite thechord nil) thechord) (let ((thechord (make-instance (quote chord) :lmidic (quote (6000)) :ldur (quote (2000)) :lvel (quote (100)) :loffset (quote (0)) :lchan (quote (1))))) (load-port-info thechord (quote (0))) (init-mus-color thechord (quote nil)) (set-extra-pairs thechord (quote nil)) (set-tonalite thechord nil) thechord) (let ((thechord (make-instance (quote chord) :lmidic (quote (6000)) :ldur (quote (1000)) :lvel (quote (100)) :loffset (quote (0)) :lchan (quote (1))))) (load-port-info thechord (quote (0))) (init-mus-color thechord (quote nil)) (set-extra-pairs thechord (quote nil)) (set-tonalite thechord nil) thechord) (let ((thechord (make-instance (quote chord) :lmidic (quote (6000)) :ldur (quote (1000)) :lvel (quote (100)) :loffset (quote (0)) :lchan (quote (1))))) (load-port-info thechord (quote (0))) (init-mus-color thechord (quote nil)) (set-extra-pairs thechord (quote nil)) (set-tonalite thechord nil) thechord) (let ((thechord (make-instance (quote chord) :lmidic (quote (6000)) :ldur (quote (1000)) :lvel (quote (100)) :loffset (quote (0)) :lchan (quote (1))))) (load-port-info thechord (quote (0))) (init-mus-color thechord (quote nil)) (set-extra-pairs thechord (quote nil)) (set-tonalite thechord nil) thechord) (let ((thechord (make-instance (quote chord) :lmidic (quote (6000)) :ldur (quote (1000)) :lvel (quote (100)) :loffset (quote (0)) :lchan (quote (1))))) (load-port-info thechord (quote (0))) (init-mus-color thechord (quote nil)) (set-extra-pairs thechord (quote nil)) (set-tonalite thechord nil) thechord) (let ((thechord (make-instance (quote chord) :lmidic (quote (6000)) :ldur (quote (1000)) :lvel (quote (100)) :loffset (quote (0)) :lchan (quote (1))))) (load-port-info thechord (quote (0))) (init-mus-color thechord (quote nil)) (set-extra-pairs thechord (quote nil)) (set-tonalite thechord nil) thechord) (let ((thechord (make-instance (quote chord) :lmidic (quote (6000)) :ldur (quote (1000)) :lvel (quote (100)) :loffset (quote (0)) :lchan (quote (1))))) (load-port-info thechord (quote (0))) (init-mus-color thechord (quote nil)) (set-extra-pairs thechord (quote nil)) (set-tonalite thechord nil) thechord) (let ((thechord (make-instance (quote chord) :lmidic (quote (6000)) :ldur (quote (2000)) :lvel (quote (100)) :loffset (quote (0)) :lchan (quote (1))))) (load-port-info thechord (quote (0))) (init-mus-color thechord (quote nil)) (set-extra-pairs thechord (quote nil)) (set-tonalite thechord nil) thechord)))) :tempo (quote ((1/4 60) nil)) :legato 100 :ties (quote (nil nil nil nil nil nil nil nil nil nil nil nil nil nil)))))) (load-port-info newobj (quote nil)) (init-mus-color newobj (quote nil)) (set-extra-pairs newobj (quote nil)) (set-patch-pairs newobj (quote nil)) (set-name newobj nil) (set-tonalite newobj nil) newobj)) :from-file t))) (load-port-info newobj (quote (nil nil))) (init-mus-color newobj (quote nil)) (set-extra-pairs newobj (quote nil)) (set-patch-pairs newobj (quote ((nil (om-load-patch-abs1 "patch" (quote nil) (quote nil) 7.02 nil "" (om-make-point 200 200) (om-make-point 400 500)))))) (set-name newobj nil) (set-tonalite newobj nil) newobj)) "x" nil (pairlis (quote (scale show-stems cursor-mode obj-mode score-mode winpos winsize mode grillestep notechancolor? zoom player inport outport deltapict cmnpref staff fontsize approx)) (list nil (quote t) (quote :normal) 1 0 (om-make-point 289 63) (om-make-point 861 603) 0 1000 nil 1 (quote :midi-player) nil nil (om-make-point 0 0) (let ((newobj (make-instance (quote edition-values)))) (setf (paper-size newobj) (om-make-point 600 800)) (setf (top-margin newobj) 2) (setf (left-margin newobj) 1) (setf (right-margin newobj) 1) (setf (bottom-margin newobj) 1) (setf (orientation newobj) nil) (setf (scale newobj) nil) (setf (system-space newobj) (quote (2 2))) (setf (system-color newobj) (quote nil)) (setf (line-space newobj) 1) (setf (title newobj) nil) (setf (show-title? newobj) nil) (setf (show-page? newobj) nil) (setf (sheet-id newobj) nil) (setf (page-mode newobj) nil) newobj) (list (quote gf) (quote gf)) 24 2)) nil nil nil nil (quote nil)))) (when (fboundp (quote set-active)) (set-active box nil)) box) (let ((box (om-load-boxcall (quote abstraction) "voices" (om-load-patch-abs1 "voices" (quote ((let ((box (om-load-boxcall (quote bastype) "list" (quote list) (quote nil) (om-make-point 135 122) (om-make-point 466 30) (list 7200 7200 7900 7900 8100 8100 7900 7700 7700 7600 7600 7400 7400 7200) " (7200 7200 7900 7900 8100 8100 7900 7700 7700 7600 7600 7400 7400 7200)" nil))) (when (fboundp (quote set-active)) (set-active box nil)) box) (let ((box (om-load-editor-box1 "VOICE" (quote voice) (quote ((om-load-inputfun (quote input-funbox) "object" "self" nil) (om-load-inputfun (quote input-funbox) "a list representing a rhythm tree" "tree" (list (quote ?) (list (list (list 4 4) (list 1 1 1 1))))) (om-load-inputfun (quote input-funbox) "a chord object, a list of chords, a list of midics, a list of lists of midics..." "chords" (list (let ((thechord (make-instance (quote chord) :lmidic (quote (6000)) :ldur (quote (1000)) :lvel (quote (100)) :loffset (quote (0)) :lchan (quote (1))))) (load-port-info thechord (quote (0))) (init-mus-color thechord (quote nil)) (set-extra-pairs thechord (quote nil)) (set-tonalite thechord nil) thechord))) (om-load-inputfun (quote input-funbox) "frequency of the quarter-note (default 60/mn)" "tempo" 60) (om-load-inputfun (quote input-funbox) "overlapping percentage between every successive chords, calculated from the second chord's duration" "legato" 100) (om-load-inputfun (quote input-funbox) "sub lists (one sub list per chord) indicating notes to be tied to notes of the same value, in a next chord" "ties" nil))) (om-make-point 482 216) (om-make-point 72 74) (let ((newobj (when (find-class (quote voice) nil) (make-instance (quote voice) :tree (quote (4 (((4 4) (1 1 1 1)) ((4 4) (1 1 2)) ((4 4) (1 1 1 1)) ((4 4) (1 1 2))))) :chords (load-obj-list-from-save (quote ((let ((thechord (make-instance (quote chord) :lmidic (quote (6000)) :ldur (quote (1000)) :lvel (quote (100)) :loffset (quote (0)) :lchan (quote (1))))) (load-port-info thechord (quote (0))) (init-mus-color thechord (quote nil)) (set-extra-pairs thechord (quote nil)) (set-tonalite thechord nil) thechord) (let ((thechord (make-instance (quote chord) :lmidic (quote (6000)) :ldur (quote (1000)) :lvel (quote (100)) :loffset (quote (0)) :lchan (quote (1))))) (load-port-info thechord (quote (0))) (init-mus-color thechord (quote nil)) (set-extra-pairs thechord (quote nil)) (set-tonalite thechord nil) thechord) (let ((thechord (make-instance (quote chord) :lmidic (quote (6000)) :ldur (quote (1000)) :lvel (quote (100)) :loffset (quote (0)) :lchan (quote (1))))) (load-port-info thechord (quote (0))) (init-mus-color thechord (quote nil)) (set-extra-pairs thechord (quote nil)) (set-tonalite thechord nil) thechord) (let ((thechord (make-instance (quote chord) :lmidic (quote (6000)) :ldur (quote (1000)) :lvel (quote (100)) :loffset (quote (0)) :lchan (quote (1))))) (load-port-info thechord (quote (0))) (init-mus-color thechord (quote nil)) (set-extra-pairs thechord (quote nil)) (set-tonalite thechord nil) thechord) (let ((thechord (make-instance (quote chord) :lmidic (quote (6000)) :ldur (quote (1000)) :lvel (quote (100)) :loffset (quote (0)) :lchan (quote (1))))) (load-port-info thechord (quote (0))) (init-mus-color thechord (quote nil)) (set-extra-pairs thechord (quote nil)) (set-tonalite thechord nil) thechord) (let ((thechord (make-instance (quote chord) :lmidic (quote (6000)) :ldur (quote (1000)) :lvel (quote (100)) :loffset (quote (0)) :lchan (quote (1))))) (load-port-info thechord (quote (0))) (init-mus-color thechord (quote nil)) (set-extra-pairs thechord (quote nil)) (set-tonalite thechord nil) thechord) (let ((thechord (make-instance (quote chord) :lmidic (quote (6000)) :ldur (quote (2000)) :lvel (quote (100)) :loffset (quote (0)) :lchan (quote (1))))) (load-port-info thechord (quote (0))) (init-mus-color thechord (quote nil)) (set-extra-pairs thechord (quote nil)) (set-tonalite thechord nil) thechord) (let ((thechord (make-instance (quote chord) :lmidic (quote (6000)) :ldur (quote (1000)) :lvel (quote (100)) :loffset (quote (0)) :lchan (quote (1))))) (load-port-info thechord (quote (0))) (init-mus-color thechord (quote nil)) (set-extra-pairs thechord (quote nil)) (set-tonalite thechord nil) thechord) (let ((thechord (make-instance (quote chord) :lmidic (quote (6000)) :ldur (quote (1000)) :lvel (quote (100)) :loffset (quote (0)) :lchan (quote (1))))) (load-port-info thechord (quote (0))) (init-mus-color thechord (quote nil)) (set-extra-pairs thechord (quote nil)) (set-tonalite thechord nil) thechord) (let ((thechord (make-instance (quote chord) :lmidic (quote (6000)) :ldur (quote (1000)) :lvel (quote (100)) :loffset (quote (0)) :lchan (quote (1))))) (load-port-info thechord (quote (0))) (init-mus-color thechord (quote nil)) (set-extra-pairs thechord (quote nil)) (set-tonalite thechord nil) thechord) (let ((thechord (make-instance (quote chord) :lmidic (quote (6000)) :ldur (quote (1000)) :lvel (quote (100)) :loffset (quote (0)) :lchan (quote (1))))) (load-port-info thechord (quote (0))) (init-mus-color thechord (quote nil)) (set-extra-pairs thechord (quote nil)) (set-tonalite thechord nil) thechord) (let ((thechord (make-instance (quote chord) :lmidic (quote (6000)) :ldur (quote (1000)) :lvel (quote (100)) :loffset (quote (0)) :lchan (quote (1))))) (load-port-info thechord (quote (0))) (init-mus-color thechord (quote nil)) (set-extra-pairs thechord (quote nil)) (set-tonalite thechord nil) thechord) (let ((thechord (make-instance (quote chord) :lmidic (quote (6000)) :ldur (quote (1000)) :lvel (quote (100)) :loffset (quote (0)) :lchan (quote (1))))) (load-port-info thechord (quote (0))) (init-mus-color thechord (quote nil)) (set-extra-pairs thechord (quote nil)) (set-tonalite thechord nil) thechord) (let ((thechord (make-instance (quote chord) :lmidic (quote (6000)) :ldur (quote (2000)) :lvel (quote (100)) :loffset (quote (0)) :lchan (quote (1))))) (load-port-info thechord (quote (0))) (init-mus-color thechord (quote nil)) (set-extra-pairs thechord (quote nil)) (set-tonalite thechord nil) thechord)))) :tempo (quote ((1/4 60) nil)) :legato 100 :ties (quote (nil nil nil nil nil nil nil nil nil nil nil nil nil nil)))))) (load-port-info newobj (quote nil)) (init-mus-color newobj (quote nil)) (set-extra-pairs newobj (quote nil)) (set-patch-pairs newobj (quote nil)) (set-name newobj nil) (set-tonalite newobj nil) newobj) "x" nil (pairlis (quote (approx fontsize staff cmnpref deltapict outport inport player zoom notechancolor? grillestep mode winsize winpos score-mode obj-mode cursor-mode show-stems scale)) (list 8 24 (quote g) (let ((newobj (make-instance (quote edition-values)))) (setf (paper-size newobj) (om-make-point 600 800)) (setf (top-margin newobj) 2) (setf (left-margin newobj) 1) (setf (right-margin newobj) 1) (setf (bottom-margin newobj) 1) (setf (orientation newobj) nil) (setf (scale newobj) nil) (setf (system-space newobj) (quote (1))) (setf (system-color newobj) (quote nil)) (setf (line-space newobj) 1) (setf (title newobj) nil) (setf (show-title? newobj) nil) (setf (show-page? newobj) nil) (setf (sheet-id newobj) nil) (setf (page-mode newobj) nil) newobj) (om-make-point 0 0) nil nil (quote :midi-player) 1 nil 1000 0 (om-make-point 834 359) (om-make-point 400 23) 0 1 (quote :normal) (quote t) nil)) nil nil nil nil (quote nil)))) (when (fboundp (quote set-active)) (set-active box nil)) box) (let ((box (om-load-boxout "output" 0 (om-make-point 383 397) (quote ((om-load-inputfun (quote input-funbox) "" "out" nil))) nil nil))) (when (fboundp (quote set-active)) (set-active box nil)) box) (let ((box (om-load-boxcall (quote bastype) "aux 11" (quote t) (quote nil) (om-make-point 14 41) (om-make-point 346 30) (list 1/4 1/4 1/4 1/4 1/4 1/4 1/2 1/4 1/4 1/4 1/4 1/4 1/4 1/2) "(1/4 1/4 1/4 1/4 1/4 1/4 1/2 1/4 1/4 1/4 1/4 1/4 1/4 1/2)" nil))) (when (fboundp (quote set-active)) (set-active box nil)) box) (let ((box (om-load-boxcall (quote lispfun) "LIST 4" (quote list) (quote ((om-load-inputfun (quote input-funbox) "add-input" "add-input" nil) (om-load-inputfun (quote input-funbox) "add-input" "add-input" nil))) (om-make-point 394 342) nil nil nil nil 1))) (when (fboundp (quote set-active)) (set-active box nil)) box) (let ((box (om-load-editor-box1 "VOICE 6" (quote voice) (quote ((om-load-inputfun (quote input-funbox) "object" "self" nil) (om-load-inputfun (quote input-funbox) "a list representing a rhythm tree" "tree" (list (quote ?) (list (list (list 4 4) (list 1 1 1 1))))) (om-load-inputfun (quote input-funbox) "a chord object, a list of chords, a list of midics, a list of lists of midics..." "chords" (list (let ((thechord (make-instance (quote chord) :lmidic (quote (6000)) :ldur (quote (1000)) :lvel (quote (100)) :loffset (quote (0)) :lchan (quote (1))))) (load-port-info thechord (quote (0))) (init-mus-color thechord (quote nil)) (set-extra-pairs thechord (quote nil)) (set-tonalite thechord nil) thechord))) (om-load-inputfun (quote input-funbox) "frequency of the quarter-note (default 60/mn)" "tempo" 60) (om-load-inputfun (quote input-funbox) "overlapping percentage between every successive chords, calculated from the second chord's duration" "legato" 100) (om-load-inputfun (quote input-funbox) "sub lists (one sub list per chord) indicating notes to be tied to notes of the same value, in a next chord" "ties" nil))) (om-make-point 16 204) (om-make-point 399 89) (let ((newobj (when (find-class (quote voice) nil) (make-instance (quote voice) :tree (quote (4 (((4 4) (1 1 1 1)) ((4 4) (1 1 2)) ((4 4) (1 1 1 1)) ((4 4) (1 1 2))))) :chords (load-obj-list-from-save (quote ((let ((thechord (make-instance (quote chord) :lmidic (quote (7200)) :ldur (quote (1000)) :lvel (quote (80)) :loffset (quote (0)) :lchan (quote (1))))) (load-port-info thechord (quote (nil))) (init-mus-color thechord (quote nil)) (set-extra-pairs thechord (quote nil)) (set-tonalite thechord nil) thechord) (let ((thechord (make-instance (quote chord) :lmidic (quote (7200)) :ldur (quote (1000)) :lvel (quote (80)) :loffset (quote (0)) :lchan (quote (1))))) (load-port-info thechord (quote (nil))) (init-mus-color thechord (quote nil)) (set-extra-pairs thechord (quote nil)) (set-tonalite thechord nil) thechord) (let ((thechord (make-instance (quote chord) :lmidic (quote (7900)) :ldur (quote (1000)) :lvel (quote (80)) :loffset (quote (0)) :lchan (quote (1))))) (load-port-info thechord (quote (nil))) (init-mus-color thechord (quote nil)) (set-extra-pairs thechord (quote nil)) (set-tonalite thechord nil) thechord) (let ((thechord (make-instance (quote chord) :lmidic (quote (7900)) :ldur (quote (1000)) :lvel (quote (80)) :loffset (quote (0)) :lchan (quote (1))))) (load-port-info thechord (quote (nil))) (init-mus-color thechord (quote nil)) (set-extra-pairs thechord (quote nil)) (set-tonalite thechord nil) thechord) (let ((thechord (make-instance (quote chord) :lmidic (quote (8100)) :ldur (quote (1000)) :lvel (quote (80)) :loffset (quote (0)) :lchan (quote (1))))) (load-port-info thechord (quote (nil))) (init-mus-color thechord (quote nil)) (set-extra-pairs thechord (quote nil)) (set-tonalite thechord nil) thechord) (let ((thechord (make-instance (quote chord) :lmidic (quote (8100)) :ldur (quote (1000)) :lvel (quote (80)) :loffset (quote (0)) :lchan (quote (1))))) (load-port-info thechord (quote (nil))) (init-mus-color thechord (quote nil)) (set-extra-pairs thechord (quote nil)) (set-tonalite thechord nil) thechord) (let ((thechord (make-instance (quote chord) :lmidic (quote (7900)) :ldur (quote (2000)) :lvel (quote (80)) :loffset (quote (0)) :lchan (quote (1))))) (load-port-info thechord (quote (nil))) (init-mus-color thechord (quote nil)) (set-extra-pairs thechord (quote nil)) (set-tonalite thechord nil) thechord) (let ((thechord (make-instance (quote chord) :lmidic (quote (7700)) :ldur (quote (1000)) :lvel (quote (80)) :loffset (quote (0)) :lchan (quote (1))))) (load-port-info thechord (quote (nil))) (init-mus-color thechord (quote nil)) (set-extra-pairs thechord (quote nil)) (set-tonalite thechord nil) thechord) (let ((thechord (make-instance (quote chord) :lmidic (quote (7700)) :ldur (quote (1000)) :lvel (quote (80)) :loffset (quote (0)) :lchan (quote (1))))) (load-port-info thechord (quote (nil))) (init-mus-color thechord (quote nil)) (set-extra-pairs thechord (quote nil)) (set-tonalite thechord nil) thechord) (let ((thechord (make-instance (quote chord) :lmidic (quote (7600)) :ldur (quote (1000)) :lvel (quote (80)) :loffset (quote (0)) :lchan (quote (1))))) (load-port-info thechord (quote (nil))) (init-mus-color thechord (quote nil)) (set-extra-pairs thechord (quote nil)) (set-tonalite thechord nil) thechord) (let ((thechord (make-instance (quote chord) :lmidic (quote (7600)) :ldur (quote (1000)) :lvel (quote (80)) :loffset (quote (0)) :lchan (quote (1))))) (load-port-info thechord (quote (nil))) (init-mus-color thechord (quote nil)) (set-extra-pairs thechord (quote nil)) (set-tonalite thechord nil) thechord) (let ((thechord (make-instance (quote chord) :lmidic (quote (7400)) :ldur (quote (1000)) :lvel (quote (80)) :loffset (quote (0)) :lchan (quote (1))))) (load-port-info thechord (quote (nil))) (init-mus-color thechord (quote nil)) (set-extra-pairs thechord (quote nil)) (set-tonalite thechord nil) thechord) (let ((thechord (make-instance (quote chord) :lmidic (quote (7400)) :ldur (quote (1000)) :lvel (quote (80)) :loffset (quote (0)) :lchan (quote (1))))) (load-port-info thechord (quote (nil))) (init-mus-color thechord (quote nil)) (set-extra-pairs thechord (quote nil)) (set-tonalite thechord nil) thechord) (let ((thechord (make-instance (quote chord) :lmidic (quote (7200)) :ldur (quote (2000)) :lvel (quote (80)) :loffset (quote (0)) :lchan (quote (1))))) (load-port-info thechord (quote (nil))) (init-mus-color thechord (quote nil)) (set-extra-pairs thechord (quote nil)) (set-tonalite thechord nil) thechord)))) :tempo (quote ((1/4 60) nil)) :legato 100 :ties (quote (nil nil nil nil nil nil nil nil nil nil nil nil nil nil)))))) (load-port-info newobj (quote nil)) (init-mus-color newobj (quote nil)) (set-extra-pairs newobj (quote nil)) (set-patch-pairs newobj (quote nil)) (set-name newobj nil) (set-tonalite newobj nil) newobj) "x" nil (pairlis (quote (approx fontsize staff cmnpref deltapict outport inport player zoom notechancolor? grillestep mode winsize winpos score-mode obj-mode cursor-mode show-stems scale)) (list 8 24 (quote g) (let ((newobj (make-instance (quote edition-values)))) (setf (paper-size newobj) (om-make-point 600 800)) (setf (top-margin newobj) 2) (setf (left-margin newobj) 1) (setf (right-margin newobj) 1) (setf (bottom-margin newobj) 1) (setf (orientation newobj) nil) (setf (scale newobj) nil) (setf (system-space newobj) (quote (1))) (setf (system-color newobj) (quote nil)) (setf (line-space newobj) 1) (setf (title newobj) nil) (setf (show-title? newobj) nil) (setf (show-page? newobj) nil) (setf (sheet-id newobj) nil) (setf (page-mode newobj) nil) newobj) (om-make-point 0 0) nil nil (quote :midi-player) 1 nil 1000 0 (om-make-point 554 300) (om-make-point 400 23) 0 1 (quote :normal) (quote t) nil)) t nil nil nil (quote nil)))) (when (fboundp (quote set-active)) (set-active box nil)) box) (let ((box (om-load-boxcall (quote genfun) "MKTREE 4" (quote mktree) (quote ((om-load-inputfun (quote input-funbox) "list of integer ratios" "RHYTHM" (list 1/4 -1/4 1/4 1/4)) (om-load-inputfun (quote input-funbox) "list of time signatures" "TIMESIGNS" (list 4 4)))) (om-make-point 74 90) nil nil nil nil 1))) (when (fboundp (quote set-active)) (set-active box nil)) box))) (quote ((6 0 1 1 nil 2) (4 0 2 0 nil 0) (5 0 4 0 nil 0) (1 0 4 1 nil 0) (6 0 5 1 nil 1) (0 0 5 2 nil 1) (3 0 6 0 nil 0))) 7.02 nil "" (om-make-point 200 200) (om-make-point 619 498)) (quote nil) (om-make-point 249/5 137) nil (list (list (let ((newobj (when (find-class (quote voice) nil) (make-instance (quote voice) :tree (quote (4 (((4 4) (1 1 1 1)) ((4 4) (1 1 2)) ((4 4) (1 1 1 1)) ((4 4) (1 1 2))))) :chords (load-obj-list-from-save (quote ((let ((thechord (make-instance (quote chord) :lmidic (quote (7200)) :ldur (quote (1000)) :lvel (quote (80)) :loffset (quote (0)) :lchan (quote (1))))) (load-port-info thechord (quote (nil))) (init-mus-color thechord (quote nil)) (set-extra-pairs thechord (quote nil)) (set-tonalite thechord nil) thechord) (let ((thechord (make-instance (quote chord) :lmidic (quote (7200)) :ldur (quote (1000)) :lvel (quote (80)) :loffset (quote (0)) :lchan (quote (1))))) (load-port-info thechord (quote (nil))) (init-mus-color thechord (quote nil)) (set-extra-pairs thechord (quote nil)) (set-tonalite thechord nil) thechord) (let ((thechord (make-instance (quote chord) :lmidic (quote (7900)) :ldur (quote (1000)) :lvel (quote (80)) :loffset (quote (0)) :lchan (quote (1))))) (load-port-info thechord (quote (nil))) (init-mus-color thechord (quote nil)) (set-extra-pairs thechord (quote nil)) (set-tonalite thechord nil) thechord) (let ((thechord (make-instance (quote chord) :lmidic (quote (7900)) :ldur (quote (1000)) :lvel (quote (80)) :loffset (quote (0)) :lchan (quote (1))))) (load-port-info thechord (quote (nil))) (init-mus-color thechord (quote nil)) (set-extra-pairs thechord (quote nil)) (set-tonalite thechord nil) thechord) (let ((thechord (make-instance (quote chord) :lmidic (quote (8100)) :ldur (quote (1000)) :lvel (quote (80)) :loffset (quote (0)) :lchan (quote (1))))) (load-port-info thechord (quote (nil))) (init-mus-color thechord (quote nil)) (set-extra-pairs thechord (quote nil)) (set-tonalite thechord nil) thechord) (let ((thechord (make-instance (quote chord) :lmidic (quote (8100)) :ldur (quote (1000)) :lvel (quote (80)) :loffset (quote (0)) :lchan (quote (1))))) (load-port-info thechord (quote (nil))) (init-mus-color thechord (quote nil)) (set-extra-pairs thechord (quote nil)) (set-tonalite thechord nil) thechord) (let ((thechord (make-instance (quote chord) :lmidic (quote (7900)) :ldur (quote (2000)) :lvel (quote (80)) :loffset (quote (0)) :lchan (quote (1))))) (load-port-info thechord (quote (nil))) (init-mus-color thechord (quote nil)) (set-extra-pairs thechord (quote nil)) (set-tonalite thechord nil) thechord) (let ((thechord (make-instance (quote chord) :lmidic (quote (7700)) :ldur (quote (1000)) :lvel (quote (80)) :loffset (quote (0)) :lchan (quote (1))))) (load-port-info thechord (quote (nil))) (init-mus-color thechord (quote nil)) (set-extra-pairs thechord (quote nil)) (set-tonalite thechord nil) thechord) (let ((thechord (make-instance (quote chord) :lmidic (quote (7700)) :ldur (quote (1000)) :lvel (quote (80)) :loffset (quote (0)) :lchan (quote (1))))) (load-port-info thechord (quote (nil))) (init-mus-color thechord (quote nil)) (set-extra-pairs thechord (quote nil)) (set-tonalite thechord nil) thechord) (let ((thechord (make-instance (quote chord) :lmidic (quote (7600)) :ldur (quote (1000)) :lvel (quote (80)) :loffset (quote (0)) :lchan (quote (1))))) (load-port-info thechord (quote (nil))) (init-mus-color thechord (quote nil)) (set-extra-pairs thechord (quote nil)) (set-tonalite thechord nil) thechord) (let ((thechord (make-instance (quote chord) :lmidic (quote (7600)) :ldur (quote (1000)) :lvel (quote (80)) :loffset (quote (0)) :lchan (quote (1))))) (load-port-info thechord (quote (nil))) (init-mus-color thechord (quote nil)) (set-extra-pairs thechord (quote nil)) (set-tonalite thechord nil) thechord) (let ((thechord (make-instance (quote chord) :lmidic (quote (7400)) :ldur (quote (1000)) :lvel (quote (80)) :loffset (quote (0)) :lchan (quote (1))))) (load-port-info thechord (quote (nil))) (init-mus-color thechord (quote nil)) (set-extra-pairs thechord (quote nil)) (set-tonalite thechord nil) thechord) (let ((thechord (make-instance (quote chord) :lmidic (quote (7400)) :ldur (quote (1000)) :lvel (quote (80)) :loffset (quote (0)) :lchan (quote (1))))) (load-port-info thechord (quote (nil))) (init-mus-color thechord (quote nil)) (set-extra-pairs thechord (quote nil)) (set-tonalite thechord nil) thechord) (let ((thechord (make-instance (quote chord) :lmidic (quote (7200)) :ldur (quote (2000)) :lvel (quote (80)) :loffset (quote (0)) :lchan (quote (1))))) (load-port-info thechord (quote (nil))) (init-mus-color thechord (quote nil)) (set-extra-pairs thechord (quote nil)) (set-tonalite thechord nil) thechord)))) :tempo (quote ((1/4 60) nil)) :legato 100 :ties (quote (nil nil nil nil nil nil nil nil nil nil nil nil nil nil)))))) (load-port-info newobj (quote nil)) (init-mus-color newobj (quote nil)) (set-extra-pairs newobj (quote nil)) (set-patch-pairs newobj (quote nil)) (set-name newobj nil) (set-tonalite newobj nil) newobj) (let ((newobj (when (find-class (quote voice) nil) (make-instance (quote voice) :tree (quote (4 (((4 4) (1 1 1 1)) ((4 4) (1 1 2)) ((4 4) (1 1 1 1)) ((4 4) (1 1 2))))) :chords (load-obj-list-from-save (quote ((let ((thechord (make-instance (quote chord) :lmidic (quote (6000)) :ldur (quote (1000)) :lvel (quote (100)) :loffset (quote (0)) :lchan (quote (1))))) (load-port-info thechord (quote (0))) (init-mus-color thechord (quote nil)) (set-extra-pairs thechord (quote nil)) (set-tonalite thechord nil) thechord) (let ((thechord (make-instance (quote chord) :lmidic (quote (6000)) :ldur (quote (1000)) :lvel (quote (100)) :loffset (quote (0)) :lchan (quote (1))))) (load-port-info thechord (quote (0))) (init-mus-color thechord (quote nil)) (set-extra-pairs thechord (quote nil)) (set-tonalite thechord nil) thechord) (let ((thechord (make-instance (quote chord) :lmidic (quote (6000)) :ldur (quote (1000)) :lvel (quote (100)) :loffset (quote (0)) :lchan (quote (1))))) (load-port-info thechord (quote (0))) (init-mus-color thechord (quote nil)) (set-extra-pairs thechord (quote nil)) (set-tonalite thechord nil) thechord) (let ((thechord (make-instance (quote chord) :lmidic (quote (6000)) :ldur (quote (1000)) :lvel (quote (100)) :loffset (quote (0)) :lchan (quote (1))))) (load-port-info thechord (quote (0))) (init-mus-color thechord (quote nil)) (set-extra-pairs thechord (quote nil)) (set-tonalite thechord nil) thechord) (let ((thechord (make-instance (quote chord) :lmidic (quote (6000)) :ldur (quote (1000)) :lvel (quote (100)) :loffset (quote (0)) :lchan (quote (1))))) (load-port-info thechord (quote (0))) (init-mus-color thechord (quote nil)) (set-extra-pairs thechord (quote nil)) (set-tonalite thechord nil) thechord) (let ((thechord (make-instance (quote chord) :lmidic (quote (6000)) :ldur (quote (1000)) :lvel (quote (100)) :loffset (quote (0)) :lchan (quote (1))))) (load-port-info thechord (quote (0))) (init-mus-color thechord (quote nil)) (set-extra-pairs thechord (quote nil)) (set-tonalite thechord nil) thechord) (let ((thechord (make-instance (quote chord) :lmidic (quote (6000)) :ldur (quote (2000)) :lvel (quote (100)) :loffset (quote (0)) :lchan (quote (1))))) (load-port-info thechord (quote (0))) (init-mus-color thechord (quote nil)) (set-extra-pairs thechord (quote nil)) (set-tonalite thechord nil) thechord) (let ((thechord (make-instance (quote chord) :lmidic (quote (6000)) :ldur (quote (1000)) :lvel (quote (100)) :loffset (quote (0)) :lchan (quote (1))))) (load-port-info thechord (quote (0))) (init-mus-color thechord (quote nil)) (set-extra-pairs thechord (quote nil)) (set-tonalite thechord nil) thechord) (let ((thechord (make-instance (quote chord) :lmidic (quote (6000)) :ldur (quote (1000)) :lvel (quote (100)) :loffset (quote (0)) :lchan (quote (1))))) (load-port-info thechord (quote (0))) (init-mus-color thechord (quote nil)) (set-extra-pairs thechord (quote nil)) (set-tonalite thechord nil) thechord) (let ((thechord (make-instance (quote chord) :lmidic (quote (6000)) :ldur (quote (1000)) :lvel (quote (100)) :loffset (quote (0)) :lchan (quote (1))))) (load-port-info thechord (quote (0))) (init-mus-color thechord (quote nil)) (set-extra-pairs thechord (quote nil)) (set-tonalite thechord nil) thechord) (let ((thechord (make-instance (quote chord) :lmidic (quote (6000)) :ldur (quote (1000)) :lvel (quote (100)) :loffset (quote (0)) :lchan (quote (1))))) (load-port-info thechord (quote (0))) (init-mus-color thechord (quote nil)) (set-extra-pairs thechord (quote nil)) (set-tonalite thechord nil) thechord) (let ((thechord (make-instance (quote chord) :lmidic (quote (6000)) :ldur (quote (1000)) :lvel (quote (100)) :loffset (quote (0)) :lchan (quote (1))))) (load-port-info thechord (quote (0))) (init-mus-color thechord (quote nil)) (set-extra-pairs thechord (quote nil)) (set-tonalite thechord nil) thechord) (let ((thechord (make-instance (quote chord) :lmidic (quote (6000)) :ldur (quote (1000)) :lvel (quote (100)) :loffset (quote (0)) :lchan (quote (1))))) (load-port-info thechord (quote (0))) (init-mus-color thechord (quote nil)) (set-extra-pairs thechord (quote nil)) (set-tonalite thechord nil) thechord) (let ((thechord (make-instance (quote chord) :lmidic (quote (6000)) :ldur (quote (2000)) :lvel (quote (100)) :loffset (quote (0)) :lchan (quote (1))))) (load-port-info thechord (quote (0))) (init-mus-color thechord (quote nil)) (set-extra-pairs thechord (quote nil)) (set-tonalite thechord nil) thechord)))) :tempo (quote ((1/4 60) nil)) :legato 100 :ties (quote (nil nil nil nil nil nil nil nil nil nil nil nil nil nil)))))) (load-port-info newobj (quote nil)) (init-mus-color newobj (quote nil)) (set-extra-pairs newobj (quote nil)) (set-patch-pairs newobj (quote nil)) (set-name newobj nil) (set-tonalite newobj nil) newobj))) nil "voices"))) (when (fboundp (quote set-active)) (set-active box nil)) box))) (quote ((5 0 0 0 nil 0) (8 0 1 0 nil 0) (10 1 4 0 nil 0) (3 0 4 1 nil 0) (2 0 4 2 nil 0) (6 0 7 0 nil 0) (11 0 9 0 nil 0) (7 0 9 1 nil 0) (1 0 9 2 nil 0) (0 0 9 3 nil 0) (12 0 11 0 nil 0) (15 0 13 0 nil 0) (16 0 15 0 nil 0) (4 0 15 1 nil 0) (9 0 15 2 nil 0) (14 0 15 3 nil 0) (17 0 16 1 nil 0))) nil 7.02))
