; OM File Header - Saved 2024/05/01 12:17:29
; (7.04 :patc (om-make-point 54 26) (om-make-point 256 23) (om-make-point 440 418) "" 183 0 "2024/04/30 17:27:23" "2024/05/01 11:38:39")
; End File Header
(in-package :om)(load-lib-for (quote ("OM-Backtrack")))(setf *om-current-persistent* (om-load-patch1 "pythagorean-triples" (quote ((let ((box (om-load-boxcall (quote abstraction) "constraint" (om-load-patch-abs1 "constraint" (quote ((let ((box (om-load-boxcall (quote genfun) "OM* 3" (quote om*) (quote ((om-load-inputfun (quote input-funbox) "number or list" "ARG1" 0) (om-load-inputfun (quote input-funbox) "number or list" "ARG2" 0))) (om-make-point 212 159) nil nil nil nil 1))) (when (fboundp (quote set-active)) (set-active box nil)) box) (let ((box (om-load-boxout "output" 0 (om-make-point 192 336) (quote ((om-load-inputfun (quote input-funbox) "" "out" nil))) nil nil))) (when (fboundp (quote set-active)) (set-active box nil)) box) (let ((box (om-load-boxcall (quote genfun) "OM+" (quote om+) (quote ((om-load-inputfun (quote input-funbox) "number or list" "ARG1" 0) (om-load-inputfun (quote input-funbox) "number or list" "ARG2" 0))) (om-make-point 123 205) nil nil nil nil 1))) (when (fboundp (quote set-active)) (set-active box nil)) box) (let ((box (om-load-boxcall (quote genfun) "OM* 2" (quote om*) (quote ((om-load-inputfun (quote input-funbox) "number or list" "ARG1" 0) (om-load-inputfun (quote input-funbox) "number or list" "ARG2" 0))) (om-make-point 152 156) nil nil nil nil 1))) (when (fboundp (quote set-active)) (set-active box nil)) box) (let ((box (om-load-boxcall (quote genfun) "OM*" (quote om*) (quote ((om-load-inputfun (quote input-funbox) "number or list" "ARG1" 0) (om-load-inputfun (quote input-funbox) "number or list" "ARG2" 0))) (om-make-point 88 153) nil nil nil nil 1))) (when (fboundp (quote set-active)) (set-active box nil)) box) (let ((box (om-load-boxcall (quote genfun) "OM=" (quote om=) (quote ((om-load-inputfun (quote input-funbox) "a number" "A" 0) (om-load-inputfun (quote input-funbox) "a number" "B" 0))) (om-make-point 206 269) nil nil nil nil 1))) (when (fboundp (quote set-active)) (set-active box nil)) box) (let ((box (om-load-boxin "input" 0 (om-make-point 150 0) "" nil nil nil))) (when (fboundp (quote set-active)) (set-active box nil)) box) (let ((box (om-load-boxcall (quote lispfun) "THIRD" (quote third) (quote ((om-load-inputfun (quote input-funbox) "LIST" "LIST" nil))) (om-make-point 208 94) nil nil nil nil 1))) (when (fboundp (quote set-active)) (set-active box nil)) box) (let ((box (om-load-boxcall (quote lispfun) "SECOND" (quote second) (quote ((om-load-inputfun (quote input-funbox) "LIST" "LIST" nil))) (om-make-point 143 91) nil nil nil nil 1))) (when (fboundp (quote set-active)) (set-active box nil)) box) (let ((box (om-load-boxcall (quote lispfun) "FIRST" (quote first) (quote ((om-load-inputfun (quote input-funbox) "LIST" "LIST" nil))) (om-make-point 86 92) nil nil nil nil 1))) (when (fboundp (quote set-active)) (set-active box nil)) box))) (quote ((7 0 0 0 nil 0) (7 0 0 1 nil 0) (5 0 1 0 nil 0) (4 0 2 0 nil 0) (3 0 2 1 nil 0) (8 0 3 0 nil 0) (8 0 3 1 nil 0) (9 0 4 0 nil 0) (9 0 4 1 nil 0) (2 0 5 0 nil 0) (0 0 5 1 nil 0) (6 0 7 0 nil 0) (6 0 8 0 nil 0) (6 0 9 0 nil 0))) 7.04 nil "" (om-make-point 34 332) (om-make-point 362 414)) (quote ((om-load-inputfun (quote input-funbox) "" "input" nil))) (om-make-point 84 104) nil nil "l" "constraint"))) (when (fboundp (quote set-active)) (set-active box nil)) box) (let ((box (om-load-boxcall (quote genfun) "APPLY-CONT" (quote apply-cont) (quote ((om-load-inputfun (quote input-funbox) "List of constraints in lambda-mode" "FUNS" nil) (om-load-inputfun (quote input-funbox) "Variables" "VAR" nil))) (om-make-point 124 199) nil nil nil nil 1))) (when (fboundp (quote set-active)) (set-active box nil)) box) (let ((box (om-load-boxcall (quote bastype) "aux 2" (quote t) (quote nil) (om-make-point 188 41) (om-make-point 27 30) 3 "3" nil))) (when (fboundp (quote set-active)) (set-active box nil)) box) (let ((box (om-load-boxcall (quote genfun) "LIST-OF-INTEGERS-BETWEEN" (quote list-of-integers-between) (quote ((om-load-inputfun (quote input-funbox) "number of variables" "N" 3) (om-load-inputfun (quote input-funbox) "low" "LOW" 0) (om-load-inputfun (quote input-funbox) "high" "HIGH" 10))) (om-make-point 180 85) nil nil nil nil 1))) (when (fboundp (quote set-active)) (set-active box nil)) box) (let ((box (om-load-boxcall (quote bastype) "list 2" (quote list) (quote nil) (om-make-point 292 38) (om-make-point 27 30) 5 "5" nil))) (when (fboundp (quote set-active)) (set-active box nil)) box) (let ((box (om-load-boxcall (quote bastype) "aux" (quote t) (quote nil) (om-make-point 238 36) (om-make-point 27 30) 1 "1" nil))) (when (fboundp (quote set-active)) (set-active box nil)) box) (let ((box (om-load-boxcall (quote genfun) "ALL-VALUES" (quote all-values) (quote ((om-load-inputfun (quote input-funbox) "expressions" "EXPRESSIONS" nil))) (om-make-point 125 291) nil nil nil nil 1))) (when (fboundp (quote set-active)) (set-active box nil)) box))) (quote ((0 0 1 0 nil 0) (3 0 1 1 nil 0) (2 0 3 0 nil 0) (5 0 3 1 nil 0) (4 0 3 2 nil 0) (1 0 6 0 nil 0))) nil 7.04))
