; OM File Header - Saved 2023/07/03 17:23:22
; (7.02 :patc (om-make-point 56 195) (om-make-point 417 106) (om-make-point 468 561) "" 183 0 "2023/07/02 22:34:06" "2023/07/03 17:05:46")
; End File Header
; External resources 
; (list (list (quote :abstraction) "#P\"../tools/all-different.omp\""))
(in-package :om)(load-lib-for (quote ("OM-Screamer")))(setf *om-current-persistent* (om-load-patch1 "all-interval-series" (quote ((let ((box (om-load-boxcall (quote genfun) "SCREAMER-SOLVER 2" (quote screamer-solver) (quote ((om-load-inputfun (quote input-funbox) "variable or list" "VARIABLES" nil) (om-load-inputfun (quote input-funbox) "propagation-variables<lambda-patch>" "P-VARIABLES" nil) (om-load-inputfun (quote input-funbox) "constraint<lambda-patch> or list" "CONSTRAINTS" nil) (om-load-inputfun (quote input-funbox) "propagation-constraints<lambda-patch>" "P-CONSTRAINTS" nil) (om-load-inputfunmenu1 (quote input-funmenu) "one-value, all-values, listener, n-values or ith-value" "SCREAMER-VALUATION" "all-values" (list (list "one-value" "one-value") (list "all-values" "all-values") (list "listener" "listener") (list "n-values" (quote (list "n-values" 10))) (list "ith-value" (quote (list "ith-value" 10))))) (om-load-inputfun (quote input-funbox) "ordering-force-functions" "FORCE-FUNCTION" "static-ordering linear-force"))) (om-make-point 195 270) nil nil nil nil 1))) (when (fboundp (quote set-active)) (set-active box nil)) box) (let ((box (om-load-boxcall (quote abstraction) "all-differentv 2" (om-load-patch-abs1 "all-differentv" (quote ((let ((box (om-load-boxcall (quote patch-box) "all-different" (quote ("elements" "OM-Screamer-tutorial-patches" "02-screamer-solver" "tools" "all-different")) (quote ((om-load-inputfun (quote input-funbox) "" "x" nil) (om-load-inputfun (quote input-funbox) "" "xs" nil))) (om-make-point 138 215) nil nil nil nil 1))) (when (fboundp (quote set-active)) (set-active box nil)) box) (let ((box (om-load-boxout "output" 0 (om-make-point 150 342) (quote ((om-load-inputfun (quote input-funbox) "" "out" nil))) nil nil))) (when (fboundp (quote set-active)) (set-active box nil)) box) (let ((box (om-load-boxcall (quote lispfun) "CDR" (quote cdr) (quote ((om-load-inputfun (quote input-funbox) "X" "X" nil))) (om-make-point 216 110) nil nil nil nil 1))) (when (fboundp (quote set-active)) (set-active box nil)) box) (let ((box (om-load-boxcall (quote lispfun) "CAR" (quote car) (quote ((om-load-inputfun (quote input-funbox) "X" "X" nil))) (om-make-point 118 110) nil nil nil nil 1))) (when (fboundp (quote set-active)) (set-active box nil)) box) (let ((box (om-load-boxin "input" 0 (om-make-point 167 0) "" nil nil nil))) (when (fboundp (quote set-active)) (set-active box nil)) box))) (quote ((3 0 0 0 nil 0) (2 0 0 1 nil 0) (0 0 1 0 nil 0) (4 0 2 0 nil 0) (4 0 3 0 nil 0))) 7.02 nil "" (om-make-point 200 200) (om-make-point 370 466)) (quote ((om-load-inputfun (quote input-funbox) "" "input" nil))) (om-make-point 299 183) nil nil "l" nil))) (when (fboundp (quote set-active)) (set-active box nil)) box) (let ((box (om-load-boxcall (quote lispfun) "LIST-OF-MEMBERS-OFV 2" (quote om-screamer::list-of-members-ofv) (quote ((om-load-inputfun (quote input-funbox) "N" "N" nil) (om-load-inputfun (quote input-funbox) "DOM" "DOM" nil))) (om-make-point 95 108) nil nil nil nil 1))) (when (fboundp (quote set-active)) (set-active box nil)) box) (let ((box (om-load-boxcall (quote lispfun) "TIME" (quote time) (quote ((om-load-inputfun (quote input-funbox) "FORM" "FORM" nil))) (om-make-point 223 412) nil nil nil nil 1))) (when (fboundp (quote set-active)) (set-active box nil)) box) (let ((box (om-load-boxcall (quote abstraction) "intervals-mod12" (om-load-patch-abs1 "intervals-mod12" (quote ((let ((box (om-load-boxcall (quote genfun) "MOD12V 2" (quote om-screamer::mod12v) (quote ((om-load-inputfun (quote input-funbox) "" "LST" nil))) (om-make-point 113 184) nil nil nil nil 1))) (when (fboundp (quote set-active)) (set-active box nil)) box) (let ((box (om-load-boxcall (quote lispfun) "X->DXV 2" (quote om-screamer::x->dxv) (quote ((om-load-inputfun (quote input-funbox) "LIST" "LIST" nil))) (om-make-point 117 90) nil nil nil nil 1))) (when (fboundp (quote set-active)) (set-active box nil)) box) (let ((box (om-load-boxout "output" 0 (om-make-point 115 256) (quote ((om-load-inputfun (quote input-funbox) "" "out" nil))) nil nil))) (when (fboundp (quote set-active)) (set-active box nil)) box) (let ((box (om-load-boxin "input" 0 (om-make-point 125 11) "" nil nil nil))) (when (fboundp (quote set-active)) (set-active box nil)) box))) (quote ((1 0 0 0 nil 0) (3 0 1 0 nil 0) (0 0 2 0 nil 0))) 7.02 nil "" (om-make-point 200 200) (om-make-point 500 400)) (quote ((om-load-inputfun (quote input-funbox) "" "input" nil))) (om-make-point 200 166) nil (list nil) "l" "intervals-mod12"))) (when (fboundp (quote set-active)) (set-active box nil)) box) (let ((box (om-load-boxcall (quote bastype) "aux 6" (quote t) (quote nil) (om-make-point 188 155) (om-make-point 27 30) 6 "6" nil))) (when (fboundp (quote set-active)) (set-active box nil)) box) (let ((box (om-load-boxcall (quote bastype) "aux 5" (quote t) (quote nil) (om-make-point 103 165) (om-make-point 27 30) 0 "0" nil))) (when (fboundp (quote set-active)) (set-active box nil)) box) (let ((box (om-load-boxcall (quote genfun) "X-APPEND" (quote x-append) (quote ((om-load-inputfun (quote input-funbox) "first element" "L1?" nil) (om-load-inputfun (quote input-funbox) "second element" "L2?" nil) (om-load-inputfun (quote input-funbox) "additional elements" "LST?" nil))) (om-make-point 139 202) nil nil nil nil 1))) (when (fboundp (quote set-active)) (set-active box nil)) box) (let ((box (om-load-boxcall (quote bastype) "aux 7" (quote t) (quote nil) (om-make-point 101 34) (om-make-point 149 30) (list 11 10 9 8 7 5 4 3 2 1) "(11 10 9 8 7 5 4 3 2 1)" nil))) (when (fboundp (quote set-active)) (set-active box nil)) box) (let ((box (om-load-boxcall (quote bastype) "aux 8" (quote t) (quote nil) (om-make-point 96 61) (om-make-point 34 30) 10 "10" nil))) (when (fboundp (quote set-active)) (set-active box nil)) box) (let ((box (om-load-boxcall (quote lispfun) "LENGTH 2" (quote length) (quote ((om-load-inputfun (quote input-funbox) "SEQUENCE" "SEQUENCE" nil))) (om-make-point 219 359) nil nil nil nil 1))) (when (fboundp (quote set-active)) (set-active box nil)) box))) (quote ((7 0 0 0 nil 0) (4 0 0 1 nil 0) (1 0 0 2 nil 0) (1 0 0 3 nil 0) (9 0 2 0 nil 0) (8 0 2 1 nil 0) (10 0 3 0 nil 0) (6 0 7 0 nil 0) (2 0 7 1 nil 0) (5 0 7 2 nil 0) (0 0 10 0 nil 0))) nil 7.02))
