; OM File Header - Saved 2023/07/06 16:05:25
; (7.02 :patc (om-make-point 66 367) (om-make-point 311 94) (om-make-point 503 492) "" 183 0 "2023/07/02 22:37:48" "2023/07/06 16:05:21")
; End File Header
; External resources 
; (list (list (quote :abstraction) "#P\"../tools/all-different.omp\""))
(in-package :om)(load-lib-for (quote ("OM-Screamer")))(setf *om-current-persistent* (om-load-patch1 "carter-chords" (quote ((let ((box (om-load-boxcall (quote abstraction) "all-differentv 2" (om-load-patch-abs1 "all-differentv" (quote ((let ((box (om-load-boxcall (quote patch-box) "all-different" (quote ("elements" "OM-Screamer-tutorial-patches" "02-screamer-solver" "tools" "all-different")) (quote ((om-load-inputfun (quote input-funbox) "" "x" nil) (om-load-inputfun (quote input-funbox) "" "xs" nil))) (om-make-point 138 215) nil nil nil nil 1))) (when (fboundp (quote set-active)) (set-active box nil)) box) (let ((box (om-load-boxout "output" 0 (om-make-point 150 342) (quote ((om-load-inputfun (quote input-funbox) "" "out" nil))) nil nil))) (when (fboundp (quote set-active)) (set-active box nil)) box) (let ((box (om-load-boxcall (quote lispfun) "CDR" (quote cdr) (quote ((om-load-inputfun (quote input-funbox) "X" "X" nil))) (om-make-point 216 110) nil nil nil nil 1))) (when (fboundp (quote set-active)) (set-active box nil)) box) (let ((box (om-load-boxcall (quote lispfun) "CAR" (quote car) (quote ((om-load-inputfun (quote input-funbox) "X" "X" nil))) (om-make-point 118 110) nil nil nil nil 1))) (when (fboundp (quote set-active)) (set-active box nil)) box) (let ((box (om-load-boxin "input" 0 (om-make-point 167 0) "" nil nil nil))) (when (fboundp (quote set-active)) (set-active box nil)) box))) (quote ((3 0 0 0 nil 0) (2 0 0 1 nil 0) (0 0 1 0 nil 0) (4 0 2 0 nil 0) (4 0 3 0 nil 0))) 7.02 nil "" (om-make-point 200 200) (om-make-point 370 466)) (quote ((om-load-inputfun (quote input-funbox) "" "input" nil))) (om-make-point 360 140) nil (list nil) "l" nil))) (when (fboundp (quote set-active)) (set-active box nil)) box) (let ((box (om-load-boxcall (quote lispfun) "LIST-OF-MEMBERS-OFV 2" (quote om-screamer::list-of-members-ofv) (quote ((om-load-inputfun (quote input-funbox) "N" "N" nil) (om-load-inputfun (quote input-funbox) "DOM" "DOM" nil))) (om-make-point 112 100) nil nil nil nil 1))) (when (fboundp (quote set-active)) (set-active box nil)) box) (let ((box (om-load-boxcall (quote genfun) "SCREAMER-SOLVER" (quote screamer-solver) (quote ((om-load-inputfun (quote input-funbox) "variable or list" "VARIABLES" nil) (om-load-inputfun (quote input-funbox) "propagation-variables<lambda-patch>" "P-VARIABLES" nil) (om-load-inputfun (quote input-funbox) "constraint<lambda-patch> or list" "CONSTRAINTS" nil) (om-load-inputfun (quote input-funbox) "propagation-constraints<lambda-patch>" "P-CONSTRAINTS" nil) (om-load-inputfunmenu1 (quote input-funmenu) "one-value, all-values or print-values" "SCREAMER-VALUATION" "all-values" (list (list "one-value" "one-value") (list "all-values" "all-values") (list "listener" "listener"))) (om-load-inputfun (quote input-funbox) "ordering-force-functions" "FORCE-FUNCTION" "static-ordering linear-force"))) (om-make-point 273 288) nil nil nil nil 1))) (when (fboundp (quote set-active)) (set-active box nil)) box) (let ((box (om-load-boxcall (quote lispfun) "LENGTH" (quote length) (quote ((om-load-inputfun (quote input-funbox) "SEQUENCE" "SEQUENCE" nil))) (om-make-point 297 373) nil nil nil nil 1))) (when (fboundp (quote set-active)) (set-active box nil)) box) (let ((box (om-load-boxcall (quote abstraction) "carter-chords" (om-load-patch-abs1 "carter-chords" (quote ((let ((box (om-load-boxcall (quote genfun) "MOD12V" (quote om-screamer::mod12v) (quote ((om-load-inputfun (quote input-funbox) "" "LST" nil))) (om-make-point 99 277) nil nil nil nil 1))) (when (fboundp (quote set-active)) (set-active box nil)) box) (let ((box (om-load-boxcall (quote lispfun) "EQUALV" (quote screamer:equalv) (quote ((om-load-inputfun (quote input-funbox) "X" "X" nil) (om-load-inputfun (quote input-funbox) "Y" "Y" nil))) (om-make-point 157 317) nil nil nil nil 1))) (when (fboundp (quote set-active)) (set-active box nil)) box) (let ((box (om-load-boxcall (quote lispfun) "ASSERT!" (quote screamer:assert!) (quote ((om-load-inputfun (quote input-funbox) "X" "X" nil))) (om-make-point 154 377) nil nil nil nil 1))) (when (fboundp (quote set-active)) (set-active box nil)) box) (let ((box (om-load-boxcall (quote lispfun) "FIRST" (quote first) (quote ((om-load-inputfun (quote input-funbox) "LIST" "LIST" nil))) (om-make-point 77 111) nil nil nil nil 1))) (when (fboundp (quote set-active)) (set-active box nil)) box) (let ((box (om-load-boxcall (quote lispfun) "-V" (quote screamer:-v) (quote ((om-load-inputfun (quote input-funbox) "X" "X" nil) (om-load-inputfun (quote input-funbox) "add-input" "add-input" nil))) (om-make-point 72 168) nil nil "l" nil 1))) (when (fboundp (quote set-active)) (set-active box nil)) box) (let ((box (om-load-boxcall (quote lispfun) "MAPCAR" (quote mapcar) (quote ((om-load-inputfun (quote input-funbox) "FUNCTION" "FUNCTION" nil) (om-load-inputfun (quote input-funbox) "LIST" "LIST" nil))) (om-make-point 103 218) nil nil nil nil 1))) (when (fboundp (quote set-active)) (set-active box nil)) box) (let ((box (om-load-boxcall (quote lispfun) "REVERSE" (quote reverse) (quote ((om-load-inputfun (quote input-funbox) "SEQUENCE" "SEQUENCE" nil))) (om-make-point 113 62) nil nil nil nil 1))) (when (fboundp (quote set-active)) (set-active box nil)) box) (let ((box (om-load-boxout "output" 0 (om-make-point 153 438) (quote ((om-load-inputfun (quote input-funbox) "" "out" nil))) nil nil))) (when (fboundp (quote set-active)) (set-active box nil)) box) (let ((box (om-load-boxin "input" 0 (om-make-point 171 0) "" nil nil nil))) (when (fboundp (quote set-active)) (set-active box nil)) box))) (quote ((5 0 0 0 nil 0) (0 0 1 0 nil 0) (8 0 1 1 nil 0) (1 0 2 0 nil 0) (6 0 3 0 nil 0) (3 0 4 1 nil 0) (4 0 5 0 nil 0) (6 0 5 1 nil 0) (8 0 6 0 nil 0) (2 0 7 0 nil 0))) 7.02 nil "" (om-make-point 428 67) (om-make-point 379 540)) (quote ((om-load-inputfun (quote input-funbox) "" "input" nil))) (om-make-point 283 115) nil (list nil) "l" "carter-chords"))) (when (fboundp (quote set-active)) (set-active box nil)) box) (let ((box (om-load-boxcall (quote lispfun) "LIST" (quote list) (quote ((om-load-inputfun (quote input-funbox) "add-input" "add-input" nil) (om-load-inputfun (quote input-funbox) "add-input" "add-input" nil))) (om-make-point 304 216) nil nil nil nil 1))) (when (fboundp (quote set-active)) (set-active box nil)) box) (let ((box (om-load-boxcall (quote bastype) "aux 5" (quote t) (quote nil) (om-make-point 24 65) (om-make-point 80 30) (list 5 4 3 2 1) "(5 4 3 2 1)" nil))) (when (fboundp (quote set-active)) (set-active box nil)) box) (let ((box (om-load-boxcall (quote lispfun) "A-MEMBER-OFV" (quote screamer:a-member-ofv) (quote ((om-load-inputfun (quote input-funbox) "VALUES" "VALUES" nil))) (om-make-point 18 99) nil nil nil nil 1))) (when (fboundp (quote set-active)) (set-active box nil)) box) (let ((box (om-load-boxcall (quote bastype) "aux 4" (quote t) (quote nil) (om-make-point 120 65) (om-make-point 27 30) 9 "9" nil))) (when (fboundp (quote set-active)) (set-active box nil)) box) (let ((box (om-load-boxcall (quote bastype) "aux 3" (quote t) (quote nil) (om-make-point 118 40) (om-make-point 149 30) (list 11 10 9 8 7 5 4 3 2 1) "(11 10 9 8 7 5 4 3 2 1)" nil))) (when (fboundp (quote set-active)) (set-active box nil)) box) (let ((box (om-load-boxcall (quote genfun) "X-APPEND" (quote x-append) (quote ((om-load-inputfun (quote input-funbox) "first element" "L1?" nil) (om-load-inputfun (quote input-funbox) "second element" "L2?" nil) (om-load-inputfun (quote input-funbox) "additional elements" "LST?" nil) (om-load-inputfun (quote input-funbox) "additional elements" "LST?" nil))) (om-make-point 115 212) nil nil nil nil 1))) (when (fboundp (quote set-active)) (set-active box nil)) box) (let ((box (om-load-boxcall (quote bastype) "aux 2" (quote t) (quote nil) (om-make-point 84 181) (om-make-point 27 30) 0 "0" nil))) (when (fboundp (quote set-active)) (set-active box nil)) box) (let ((box (om-load-boxcall (quote bastype) "aux" (quote t) (quote nil) (om-make-point 174 168) (om-make-point 27 30) 6 "6" nil))) (when (fboundp (quote set-active)) (set-active box nil)) box) (let ((box (om-load-boxcall (quote abstraction) "intervals-mod12" (om-load-patch-abs1 "intervals-mod12" (quote ((let ((box (om-load-boxcall (quote genfun) "MOD12V 2" (quote om-screamer::mod12v) (quote ((om-load-inputfun (quote input-funbox) "" "LST" nil))) (om-make-point 114 151) nil nil nil nil 1))) (when (fboundp (quote set-active)) (set-active box nil)) box) (let ((box (om-load-boxcall (quote lispfun) "X->DXV 2" (quote om-screamer::x->dxv) (quote ((om-load-inputfun (quote input-funbox) "LIST" "LIST" nil))) (om-make-point 118 97) nil nil nil nil 1))) (when (fboundp (quote set-active)) (set-active box nil)) box) (let ((box (om-load-boxout "output" 0 (om-make-point 116 203) (quote ((om-load-inputfun (quote input-funbox) "" "out" nil))) nil nil))) (when (fboundp (quote set-active)) (set-active box nil)) box) (let ((box (om-load-boxin "input" 0 (om-make-point 126 11) "" nil nil nil))) (when (fboundp (quote set-active)) (set-active box nil)) box))) (quote ((1 0 0 0 nil 0) (3 0 1 0 nil 0) (0 0 2 0 nil 0))) 7.02 nil "" (om-make-point 200 200) (om-make-point 354 385)) (quote ((om-load-inputfun (quote input-funbox) "" "input" nil))) (om-make-point 204 190) nil (list nil) "l" "intervals-mod12"))) (when (fboundp (quote set-active)) (set-active box nil)) box))) (quote ((8 0 1 0 nil 0) (9 0 1 1 nil 0) (10 0 2 0 nil 0) (13 0 2 1 nil 0) (5 0 2 2 nil 0) (0 0 2 3 nil 0) (2 0 3 0 nil 0) (0 0 5 0 nil 0) (4 0 5 1 nil 1) (6 0 7 0 nil 0) (11 0 10 0 nil 0) (7 0 10 1 nil 0) (1 0 10 2 nil 0) (12 0 10 3 nil 0))) nil 7.02))
