; OM File Header - Saved 2023/07/15 09:29:53
; (7.02 :patc (om-make-point 29 35) (om-make-point 50 50) (om-make-point 819 510) "" 183 0 "2023/07/02 22:40:14" "2023/07/14 23:13:25")
; End File Header
(in-package :om)(load-lib-for (quote ("OM-Screamer")))(setf *om-current-persistent* (om-load-patch1 "combinations-permutations" (quote ((let ((box (om-load-boxcall (quote bastype) "aux 8" (quote t) (quote nil) (om-make-point 406 44) (om-make-point 110 30) "a-member-ofv" "\"a-member-ofv\"" nil))) (when (fboundp (quote set-active)) (set-active box nil)) box) (let ((box (om-load-boxcall (quote genfun) "LIST-OFVS 2" (quote list-ofvs) (quote ((om-load-inputfun (quote input-funbox) "integer" "N-VARS" 3) (om-load-inputfunmenu1 (quote input-funmenu) "screamer-variable" "VARIABLES" "a-member-ofv" (list (list "an-integer-betweenv" "an-integer-betweenv") (list "a-member-ofv" "a-member-ofv") (list "a-random-member-ofv" "a-random-member-ofv") (list "an-integerv" "an-integerv") (list "an-integer-abovev" "an-integer-abovev") (list "an-integer-belowv" "an-integer-belowv") (list "a-realv" "a-realv") (list "a-real-abovev" "a-real-abovev") (list "a-real-belowv" "a-real-belowv") (list "a-real-betweenv" "a-real-betweenv") (list "a-numberv" "a-numberv") (list "a-booleanv" "a-booleanv"))) (om-load-inputfun (quote input-funbox) "list" "ARGS" (list 0 10)))) (om-make-point 433 116) nil nil nil nil 1))) (when (fboundp (quote set-active)) (set-active box nil)) box) (let ((box (om-load-boxcall (quote bastype) "aux 7" (quote t) (quote nil) (om-make-point 416 77) (om-make-point 27 30) 6 "6" nil))) (when (fboundp (quote set-active)) (set-active box nil)) box) (let ((box (om-load-boxcall (quote bastype) "aux 3" (quote t) (quote nil) (om-make-point 475 79) (om-make-point 91 30) (list 0 1 2 3 4 5) "(0 1 2 3 4 5)" nil))) (when (fboundp (quote set-active)) (set-active box nil)) box) (let ((box (om-load-boxcall (quote bastype) "aux 6" (quote t) (quote nil) (om-make-point 55 47) (om-make-point 110 30) "a-member-ofv" "\"a-member-ofv\"" nil))) (when (fboundp (quote set-active)) (set-active box nil)) box) (let ((box (om-load-boxcall (quote genfun) "LIST-OFVS" (quote list-ofvs) (quote ((om-load-inputfun (quote input-funbox) "integer" "N-VARS" 3) (om-load-inputfunmenu1 (quote input-funmenu) "screamer-variable" "VARIABLES" "a-member-ofv" (list (list "an-integer-betweenv" "an-integer-betweenv") (list "a-member-ofv" "a-member-ofv") (list "a-random-member-ofv" "a-random-member-ofv") (list "an-integerv" "an-integerv") (list "an-integer-abovev" "an-integer-abovev") (list "an-integer-belowv" "an-integer-belowv") (list "a-realv" "a-realv") (list "a-real-abovev" "a-real-abovev") (list "a-real-belowv" "a-real-belowv") (list "a-real-betweenv" "a-real-betweenv") (list "a-numberv" "a-numberv") (list "a-booleanv" "a-booleanv"))) (om-load-inputfun (quote input-funbox) "list" "ARGS" (list 0 10)))) (om-make-point 82 119) nil nil nil nil 1))) (when (fboundp (quote set-active)) (set-active box nil)) box) (let ((box (om-load-boxcall (quote genfun) "SCREAMER-SOLVER 3" (quote screamer-solver) (quote ((om-load-inputfun (quote input-funbox) "variable or list" "VARIABLES" nil) (om-load-inputfun (quote input-funbox) "propagation-variables<lambda-patch>" "P-VARIABLES" nil) (om-load-inputfun (quote input-funbox) "constraint<lambda-patch> or list" "CONSTRAINTS" nil) (om-load-inputfun (quote input-funbox) "propagation-constraints<lambda-patch>" "P-CONSTRAINTS" nil) (om-load-inputfunmenu1 (quote input-funmenu) "one-value, all-values, listener, n-values, ith-value or best-value" "SCREAMER-VALUATION" "one-value" (list (list "one-value" "one-value") (list "all-values" "all-values") (list "listener" "listener") (list "n-values" (list (quote list) "n-values" 10)) (list "ith-value" (list (quote list) "ith-value" 10)) (list "best-value" "best-value"))) (om-load-inputfun (quote input-funbox) "ordering-force-functions" "FORCE-FUNCTION" "static-ordering linear-force"))) (om-make-point 470 213) nil nil nil nil 1))) (when (fboundp (quote set-active)) (set-active box nil)) box) (let ((box (om-load-boxcall (quote genfun) "SCREAMER-SOLVER 2" (quote screamer-solver) (quote ((om-load-inputfun (quote input-funbox) "variable or list" "VARIABLES" nil) (om-load-inputfun (quote input-funbox) "propagation-variables<lambda-patch>" "P-VARIABLES" nil) (om-load-inputfun (quote input-funbox) "constraint<lambda-patch> or list" "CONSTRAINTS" nil) (om-load-inputfun (quote input-funbox) "propagation-constraints<lambda-patch>" "P-CONSTRAINTS" nil) (om-load-inputfunmenu1 (quote input-funmenu) "one-value, all-values, listener, n-values, ith-value or best-value" "SCREAMER-VALUATION" "one-value" (list (list "one-value" "one-value") (list "all-values" "all-values") (list "listener" "listener") (list "n-values" (list (quote list) "n-values" 10)) (list "ith-value" (list (quote list) "ith-value" 10)) (list "best-value" "best-value"))) (om-load-inputfun (quote input-funbox) "ordering-force-functions" "FORCE-FUNCTION" "static-ordering linear-force"))) (om-make-point 123 230) nil nil nil nil 1))) (when (fboundp (quote set-active)) (set-active box nil)) box) (let ((box (om-load-boxcall (quote bastype) "aux 5" (quote t) (quote nil) (om-make-point 596 178) (om-make-point 83 30) "all-values" "\"all-values\"" nil))) (when (fboundp (quote set-active)) (set-active box nil)) box) (let ((box (om-load-boxcall (quote lispfun) "ASSERT!-ALL-DIFFERENTV" (quote om-screamer::assert!-all-differentv) (quote ((om-load-inputfun (quote input-funbox) "LIST" "LIST" nil))) (om-make-point 516 138) nil nil "l" nil 1))) (when (fboundp (quote set-active)) (set-active box nil)) box) (let ((box (om-load-boxcomment "comment" (om-make-point 139 30) (quote "ALL PERMUTATIONS") "" (om-make-point 449 428) nil (om-make-color 0 0 0) (om-make-font "Verdana" 12.0D0 :family "Verdana" :style (quote (:plain)) :mode (quote nil))))) (when (fboundp (quote set-active)) (set-active box nil)) box) (let ((box (om-load-boxcomment "comment" (om-make-point 139 30) (quote "ALL COMBINATIONS") "" (om-make-point 102 435) nil (om-make-color 0 0 0) (om-make-font "Verdana" 12.0D0 :family "Verdana" :style (quote (:plain)) :mode (quote nil))))) (when (fboundp (quote set-active)) (set-active box nil)) box) (let ((box (om-load-editor-box1 "TEXT-BOX 2" (quote text-box) (quote ((om-load-inputfun (quote input-funbox) "dialog-item text (string)" "text" "untitled"))) (om-make-point 484 374) (om-make-point 61 40) (om-make-dialog-item (quote text-box) (om-make-point 1 1) (om-make-point 33 20) "720" :font (om-make-font "Verdana" 11.0D0 :family "Verdana" :style (quote (:plain)) :mode (quote nil))) nil nil (pairlis (quote (winpos winsize)) (list (om-make-point 10 40) (om-make-point 335 275))) nil nil nil nil (quote nil)))) (when (fboundp (quote set-active)) (set-active box nil)) box) (let ((box (om-load-editor-box1 "TEXT-BOX" (quote text-box) (quote ((om-load-inputfun (quote input-funbox) "dialog-item text (string)" "text" "untitled"))) (om-make-point 131 375) (om-make-point 73 40) (om-make-dialog-item (quote text-box) (om-make-point 1 1) (om-make-point 45 20) "46656" :font (om-make-font "Verdana" 11.0D0 :family "Verdana" :style (quote (:plain)) :mode (quote nil))) nil nil (pairlis (quote (winpos winsize)) (list (om-make-point 10 40) (om-make-point 335 275))) nil nil nil nil (quote nil)))) (when (fboundp (quote set-active)) (set-active box nil)) box) (let ((box (om-load-boxcall (quote bastype) "aux 2" (quote t) (quote nil) (om-make-point 124 82) (om-make-point 91 30) (list 0 1 2 3 4 5) "(0 1 2 3 4 5)" nil))) (when (fboundp (quote set-active)) (set-active box nil)) box) (let ((box (om-load-boxcall (quote lispfun) "LENGTH 2" (quote length) (quote ((om-load-inputfun (quote input-funbox) "SEQUENCE" "SEQUENCE" nil))) (om-make-point 494 315) nil nil nil nil 1))) (when (fboundp (quote set-active)) (set-active box nil)) box) (let ((box (om-load-boxcall (quote bastype) "aux 4" (quote t) (quote nil) (om-make-point 197 184) (om-make-point 83 30) "all-values" "\"all-values\"" nil))) (when (fboundp (quote set-active)) (set-active box nil)) box) (let ((box (om-load-boxcall (quote lispfun) "LENGTH" (quote length) (quote ((om-load-inputfun (quote input-funbox) "SEQUENCE" "SEQUENCE" nil))) (om-make-point 147 320) nil nil nil nil 1))) (when (fboundp (quote set-active)) (set-active box nil)) box) (let ((box (om-load-boxcall (quote bastype) "aux" (quote t) (quote nil) (om-make-point 65 80) (om-make-point 27 30) 6 "6" nil))) (when (fboundp (quote set-active)) (set-active box nil)) box))) (quote ((2 0 1 0 nil 0) (0 0 1 1 nil 0) (3 0 1 2 nil 0) (18 0 5 0 nil 0) (4 0 5 1 nil 0) (14 0 5 2 nil 0) (1 0 6 0 nil 0) (9 0 6 2 nil 0) (8 0 6 4 nil 0) (5 0 7 0 nil 0) (16 0 7 4 nil 0) (15 0 12 0 nil 0) (17 0 13 0 nil 0) (6 0 15 0 nil 0) (7 0 17 0 nil 0))) nil 7.02))
