; OM File Header - Saved 2023/07/15 09:30:09
; (7.02 :patc (om-make-point 133.03857421875D0 80) (om-make-point 517 124) (om-make-point 466 434) "" 183 0 nil "2023/06/08 20:31:14")
; End File Header
(in-package :om)(load-lib-for (quote ("OM-Screamer")))(setf *om-current-persistent* (om-load-patch1 "07-backtrack-tut-7" (quote ((let ((box (om-load-boxcall (quote abstraction) "mypatch" (om-load-patch-abs1 "mypatch" (quote ((let ((box (om-load-boxcomment "comment" (om-make-point 474 360) (quote "a-chord-in is a slightly more complicated function for variable declaration.$$It works like list-of-members-of (the output is a list of Screamer variables),$except that it includes two predefined constraints.$$These constraints are hidden in the function itself, and they state that the$values of the list must be all different, and that the list must be sorted.$$This is usefull to define a chord for instance. The alldifferent constraints$avoids you to get answers like (6000 6000 6000) and the sort constraints$avoids (6000 6200 6400) and then (6200 6000 6400), which you may$consider the same if you want to define chord midicents.$$You could do the same by using apply-cont with list-of-members-of,$but a-chord-in answers much faster since the backtracking happens$earlier.$$You can also add constraints after a-chord-in, here the constraint states$that the chord must contain an interval of 400.$$Of course, you can use a-chord-in with any domain values, not only$midicents (provided they can be sorted with < predicate), as the$name doesn't suggest.") "" (om-make-point 283 84) nil (om-make-color 0 0 0) (om-make-font "Verdana" 12.0D0 :family "Verdana" :style (quote (:plain)) :mode (quote nil))))) (when (fboundp (quote set-active)) (set-active box nil)) box) (let ((box (om-load-boxout "output" 0 (om-make-point 138 1559/4) (quote ((om-load-inputfun (quote input-funbox) "" "out" nil))) nil nil))) (when (fboundp (quote set-active)) (set-active box nil)) box) (let ((box (om-load-boxin "input 2" 1 (om-make-point 213 5) "" nil nil nil))) (when (fboundp (quote set-active)) (set-active box nil)) box) (let ((box (om-load-boxin "input" 0 (om-make-point 124 4) "" nil nil nil))) (when (fboundp (quote set-active)) (set-active box nil)) box) (let ((box (om-load-boxcall (quote genfun) "A-CHORD-IN" (quote a-chord-in) (quote ((om-load-inputfun (quote input-funbox) "number of variables" "N" 5) (om-load-inputfun (quote input-funbox) "list of values" "DOM" (list 6000 6200 6400 6600 6800 7000)))) (om-make-point 156 76) nil nil nil nil 1))) (when (fboundp (quote set-active)) (set-active box nil)) box) (let ((box (om-load-boxcall (quote genfun) "APPLY-CONT" (quote apply-cont) (quote ((om-load-inputfun (quote input-funbox) "List of constraints in lambda-mode" "FUNS" nil) (om-load-inputfun (quote input-funbox) "Variables" "VAR" nil))) (om-make-point 102 161) nil nil nil nil 1))) (when (fboundp (quote set-active)) (set-active box nil)) box) (let ((box (om-load-editor-box1 "CHORD" (quote chord) (quote ((om-load-inputfun (quote input-funbox) "object" "self" nil) (om-load-inputfun (quote input-funbox) "pitches (list of midicents)" "lmidic" (list 6000)) (om-load-inputfun (quote input-funbox) "velocities (list of values 0-127)" "lvel" (list 100)) (om-load-inputfun (quote input-funbox) "offsets (list of values in ms)" "loffset" (list 0)) (om-load-inputfun (quote input-funbox) "durations (list of values in ms)" "ldur" (list 1000)) (om-load-inputfun (quote input-funbox) "MIDI channels (list of values 0-16)" "lchan" (list 1)))) (om-make-point 141 272) (om-make-point 60 90) (let ((thechord (make-instance (quote chord) :lmidic (quote (6000)) :ldur (quote (1000)) :lvel (quote (100)) :loffset (quote (0)) :lchan (quote (1))))) (load-port-info thechord (quote (0))) (init-mus-color thechord (quote nil)) (set-extra-pairs thechord (quote nil)) (set-tonalite thechord nil) thechord) nil nil (pairlis (quote (scale show-stems cursor-mode obj-mode score-mode winpos winsize mode grillestep notechancolor? zoom player inport outport deltapict cmnpref staff fontsize approx)) (list nil (quote t) (quote :normal) 0 0 (om-make-point 400 20) (om-make-point 370 280) 0 1000 nil 1 (quote :fluidsynth) nil nil (om-make-point 0 0) (let ((newobj (make-instance (quote edition-values)))) (setf (paper-size newobj) (om-make-point 600 800)) (setf (top-margin newobj) 2) (setf (left-margin newobj) 1) (setf (right-margin newobj) 1) (setf (bottom-margin newobj) 1) (setf (orientation newobj) nil) (setf (scale newobj) nil) (setf (system-space newobj) (quote (1))) (setf (system-color newobj) (quote nil)) (setf (line-space newobj) 1) (setf (title newobj) nil) (setf (show-title? newobj) nil) (setf (show-page? newobj) nil) (setf (sheet-id newobj) nil) (setf (page-mode newobj) nil) newobj) (quote g) 24 8)) nil nil nil nil (quote nil)))) (when (fboundp (quote set-active)) (set-active box nil)) box) (let ((box (om-load-boxcall (quote abstraction) "mypatch" (om-load-patch-abs1 "mypatch" (quote ((let ((box (om-load-boxout "output" 0 (om-make-point 94 391) (quote ((om-load-inputfun (quote input-funbox) "" "out" nil))) nil nil))) (when (fboundp (quote set-active)) (set-active box nil)) box) (let ((box (om-load-boxcall (quote lispfun) "NOT" (quote not) (quote ((om-load-inputfun (quote input-funbox) "X" "X" nil))) (om-make-point 105 323) nil nil nil nil 1))) (when (fboundp (quote set-active)) (set-active box nil)) box) (let ((box (om-load-boxcall (quote lispfun) "NULL" (quote null) (quote ((om-load-inputfun (quote input-funbox) "X" "X" nil))) (om-make-point 106 256) nil nil nil nil 1))) (when (fboundp (quote set-active)) (set-active box nil)) box) (let ((box (om-load-boxcall (quote bastype) "aux" (quote t) (quote nil) (om-make-point 65 147) (om-make-point 41 30) 400 "400" nil))) (when (fboundp (quote set-active)) (set-active box nil)) box) (let ((box (om-load-boxcall (quote lispfun) "MEMBER" (quote member) (quote ((om-load-inputfun (quote input-funbox) "ITEM" "ITEM" nil) (om-load-inputfun (quote input-funbox) "LIST" "LIST" nil))) (om-make-point 95 187) nil nil nil nil 1))) (when (fboundp (quote set-active)) (set-active box nil)) box) (let ((box (om-load-boxcall (quote genfun) "X->DX" (quote x->dx) (quote ((om-load-inputfun (quote input-funbox) "a list of numbers" "SELF" (list 0 1)))) (om-make-point 163 118) nil nil nil nil 1))) (when (fboundp (quote set-active)) (set-active box nil)) box) (let ((box (om-load-boxin "input" 0 (om-make-point 168 20) "" nil nil nil))) (when (fboundp (quote set-active)) (set-active box nil)) box))) (quote ((1 0 0 0 nil 0) (2 0 1 0 nil 0) (4 0 2 0 nil 0) (3 0 4 0 nil 0) (5 0 4 1 nil 0) (6 0 5 0 nil 0))) 7.02 nil "" (om-make-point 200 200) (om-make-point 500 400)) (quote ((om-load-inputfun (quote input-funbox) "" "input" nil))) (om-make-point 51 74) nil nil "l" nil))) (when (fboundp (quote set-active)) (set-active box nil)) box))) (quote ((6 0 1 0 nil 0) (3 0 4 0 nil 0) (2 0 4 1 nil 0) (7 0 5 0 nil 0) (4 0 5 1 nil 0) (5 0 6 1 nil 0))) 7.02 nil "" (om-make-point 272 218) (om-make-point 826 519)) (quote ((om-load-inputfun (quote input-funbox) "" "input" nil) (om-load-inputfun (quote input-funbox) "" "input 2" nil))) (om-make-point 79 321/2) nil (list (let ((thechord (make-instance (quote chord) :lmidic (quote (6000 6200 6400 6800 7200)) :ldur (quote (1000 1000 1000 1000 1000)) :lvel (quote (100 100 100 100 100)) :loffset (quote (0 0 0 0 0)) :lchan (quote (1 1 1 1 1))))) (load-port-info thechord (quote (0 0 0 0 0))) (init-mus-color thechord (quote nil)) (set-extra-pairs thechord (quote nil)) (set-tonalite thechord nil) thechord)) nil "mypatch"))) (when (fboundp (quote set-active)) (set-active box nil)) box) (let ((box (om-load-editor-box1 "CHORD" (quote chord) (quote ((om-load-inputfun (quote input-funbox) "object" "self" nil) (om-load-inputfun (quote input-funbox) "pitches (list of midicents)" "lmidic" (list 6000)) (om-load-inputfun (quote input-funbox) "velocities (list of values 0-127)" "lvel" (list 100)) (om-load-inputfun (quote input-funbox) "offsets (list of values in ms)" "loffset" (list 0)) (om-load-inputfun (quote input-funbox) "durations (list of values in ms)" "ldur" (list 1000)) (om-load-inputfun (quote input-funbox) "MIDI channels (list of values 0-16)" "lchan" (list 1)))) (om-make-point 76 275) (om-make-point 60 90) (let ((thechord (make-instance (quote chord) :lmidic (quote (6000 6200 6400 6800 7200)) :ldur (quote (1000 1000 1000 1000 1000)) :lvel (quote (100 100 100 100 100)) :loffset (quote (0 0 0 0 0)) :lchan (quote (1 1 1 1 1))))) (load-port-info thechord (quote (0 0 0 0 0))) (init-mus-color thechord (quote nil)) (set-extra-pairs thechord (quote nil)) (set-tonalite thechord nil) thechord) nil nil (pairlis (quote (scale show-stems cursor-mode obj-mode score-mode winpos winsize mode grillestep notechancolor? zoom player inport outport deltapict cmnpref staff fontsize approx)) (list nil (quote t) (quote :normal) 0 0 (om-make-point 400 20) (om-make-point 370 280) 0 1000 nil 1 (quote :midi-player) nil nil (om-make-point 0 0) (let ((newobj (make-instance (quote edition-values)))) (setf (paper-size newobj) (om-make-point 600 800)) (setf (top-margin newobj) 2) (setf (left-margin newobj) 1) (setf (right-margin newobj) 1) (setf (bottom-margin newobj) 1) (setf (orientation newobj) nil) (setf (scale newobj) nil) (setf (system-space newobj) (quote (1))) (setf (system-color newobj) (quote nil)) (setf (line-space newobj) 1) (setf (title newobj) nil) (setf (show-title? newobj) nil) (setf (show-page? newobj) nil) (setf (sheet-id newobj) nil) (setf (page-mode newobj) nil) newobj) (quote g) 24 8)) t nil nil nil (quote nil)))) (when (fboundp (quote set-active)) (set-active box nil)) box) (let ((box (om-load-boxcomment "comment" (om-make-point 144 45) (quote "Open the red ?patch.$") "" (om-make-point 198 183) nil (om-make-color 0 0 0) (om-make-font "Verdana" 12 :family "Verdana" :style (quote (:plain)) :mode (quote nil))))) (when (fboundp (quote set-active)) (set-active box nil)) box) (let ((box (om-load-boxcall (quote bastype) "aux 2" (quote t) (quote nil) (om-make-point 97 293/4) (om-make-point 249 30) (list 6000 6200 6400 6600 6800 7000 7200) "(6000 6200 6400 6600 6800 7000 7200)" nil))) (when (fboundp (quote set-active)) (set-active box nil)) box) (let ((box (om-load-boxcall (quote bastype) "aux" (quote t) (quote nil) (om-make-point 35 305/4) (om-make-point 27 30) 5 "5" nil))) (when (fboundp (quote set-active)) (set-active box nil)) box))) (quote ((4 0 0 0 nil 0) (3 0 0 1 nil 0) (0 0 1 0 nil 0))) nil 7.02))
